%TF.GenerationSoftware,KiCad,Pcbnew,(5.1.9)-1*%
%TF.CreationDate,2021-08-17T00:54:57-04:00*%
%TF.ProjectId,cargador,63617267-6164-46f7-922e-6b696361645f,rev?*%
%TF.SameCoordinates,Original*%
%TF.FileFunction,Copper,L2,Bot*%
%TF.FilePolarity,Positive*%
%FSLAX46Y46*%
G04 Gerber Fmt 4.6, Leading zero omitted, Abs format (unit mm)*
G04 Created by KiCad (PCBNEW (5.1.9)-1) date 2021-08-17 00:54:57*
%MOMM*%
%LPD*%
G01*
G04 APERTURE LIST*
%TA.AperFunction,ComponentPad*%
%ADD10O,0.800000X1.400000*%
%TD*%
%TA.AperFunction,ComponentPad*%
%ADD11C,3.000000*%
%TD*%
%TA.AperFunction,ComponentPad*%
%ADD12R,3.000000X3.000000*%
%TD*%
%TA.AperFunction,ComponentPad*%
%ADD13O,1.050000X1.900000*%
%TD*%
%TA.AperFunction,ComponentPad*%
%ADD14O,1.700000X1.700000*%
%TD*%
%TA.AperFunction,ComponentPad*%
%ADD15R,1.700000X1.700000*%
%TD*%
%TA.AperFunction,ViaPad*%
%ADD16C,1.800000*%
%TD*%
%TA.AperFunction,Conductor*%
%ADD17C,0.254000*%
%TD*%
%TA.AperFunction,Conductor*%
%ADD18C,0.100000*%
%TD*%
G04 APERTURE END LIST*
D10*
%TO.P,J1,S1*%
%TO.N,GND*%
X72390000Y-35660000D03*
X63410000Y-35660000D03*
X63770000Y-41610000D03*
X72030000Y-41610000D03*
%TD*%
D11*
%TO.P,VBUS_Out1,2*%
%TO.N,GND*%
X108000000Y-89080000D03*
D12*
%TO.P,VBUS_Out1,1*%
%TO.N,Vin*%
X108000000Y-84000000D03*
%TD*%
D13*
%TO.P,USB_IN1,6*%
%TO.N,GND*%
X95425000Y-35800000D03*
X102575000Y-35800000D03*
%TD*%
D14*
%TO.P,Out3v3,2*%
%TO.N,GND*%
X55000000Y-87540000D03*
D15*
%TO.P,Out3v3,1*%
%TO.N,Vout*%
X55000000Y-85000000D03*
%TD*%
D11*
%TO.P,BattOut,2*%
%TO.N,GND*%
X86080000Y-102000000D03*
D12*
%TO.P,BattOut,1*%
%TO.N,Battery_Out*%
X81000000Y-102000000D03*
%TD*%
D16*
%TO.N,GND*%
X105000000Y-72000000D03*
X98000000Y-69000000D03*
X106000000Y-58000000D03*
X83000000Y-43000000D03*
X98000000Y-64000000D03*
X94200000Y-38600000D03*
X103800000Y-39100000D03*
X92300000Y-35900000D03*
X105400000Y-35900000D03*
X65100000Y-39400000D03*
X63500000Y-46100000D03*
X72500000Y-46100000D03*
X70600000Y-39500000D03*
X83000000Y-52100000D03*
X76200000Y-87000000D03*
X71300000Y-79700000D03*
X68500000Y-89000000D03*
X64600000Y-78000000D03*
%TD*%
D17*
%TO.N,GND*%
X115873000Y-109873000D02*
X50127000Y-109873000D01*
X50127000Y-105740475D01*
X51365000Y-105740475D01*
X51365000Y-106259525D01*
X51466261Y-106768601D01*
X51664893Y-107248141D01*
X51953262Y-107679715D01*
X52320285Y-108046738D01*
X52751859Y-108335107D01*
X53231399Y-108533739D01*
X53740475Y-108635000D01*
X54259525Y-108635000D01*
X54768601Y-108533739D01*
X55248141Y-108335107D01*
X55679715Y-108046738D01*
X56046738Y-107679715D01*
X56335107Y-107248141D01*
X56533739Y-106768601D01*
X56635000Y-106259525D01*
X56635000Y-105740475D01*
X109365000Y-105740475D01*
X109365000Y-106259525D01*
X109466261Y-106768601D01*
X109664893Y-107248141D01*
X109953262Y-107679715D01*
X110320285Y-108046738D01*
X110751859Y-108335107D01*
X111231399Y-108533739D01*
X111740475Y-108635000D01*
X112259525Y-108635000D01*
X112768601Y-108533739D01*
X113248141Y-108335107D01*
X113679715Y-108046738D01*
X114046738Y-107679715D01*
X114335107Y-107248141D01*
X114533739Y-106768601D01*
X114635000Y-106259525D01*
X114635000Y-105740475D01*
X114533739Y-105231399D01*
X114335107Y-104751859D01*
X114046738Y-104320285D01*
X113679715Y-103953262D01*
X113248141Y-103664893D01*
X112768601Y-103466261D01*
X112259525Y-103365000D01*
X111740475Y-103365000D01*
X111231399Y-103466261D01*
X110751859Y-103664893D01*
X110320285Y-103953262D01*
X109953262Y-104320285D01*
X109664893Y-104751859D01*
X109466261Y-105231399D01*
X109365000Y-105740475D01*
X56635000Y-105740475D01*
X56533739Y-105231399D01*
X56335107Y-104751859D01*
X56046738Y-104320285D01*
X55679715Y-103953262D01*
X55248141Y-103664893D01*
X54768601Y-103466261D01*
X54259525Y-103365000D01*
X53740475Y-103365000D01*
X53231399Y-103466261D01*
X52751859Y-103664893D01*
X52320285Y-103953262D01*
X51953262Y-104320285D01*
X51664893Y-104751859D01*
X51466261Y-105231399D01*
X51365000Y-105740475D01*
X50127000Y-105740475D01*
X50127000Y-100500000D01*
X78861928Y-100500000D01*
X78861928Y-103500000D01*
X78874188Y-103624482D01*
X78910498Y-103744180D01*
X78969463Y-103854494D01*
X79048815Y-103951185D01*
X79145506Y-104030537D01*
X79255820Y-104089502D01*
X79375518Y-104125812D01*
X79500000Y-104138072D01*
X82500000Y-104138072D01*
X82624482Y-104125812D01*
X82744180Y-104089502D01*
X82854494Y-104030537D01*
X82951185Y-103951185D01*
X83030537Y-103854494D01*
X83089502Y-103744180D01*
X83125812Y-103624482D01*
X83138072Y-103500000D01*
X83138072Y-103491653D01*
X84767952Y-103491653D01*
X84923962Y-103807214D01*
X85298745Y-103998020D01*
X85703551Y-104112044D01*
X86122824Y-104144902D01*
X86540451Y-104095334D01*
X86940383Y-103965243D01*
X87236038Y-103807214D01*
X87392048Y-103491653D01*
X86080000Y-102179605D01*
X84767952Y-103491653D01*
X83138072Y-103491653D01*
X83138072Y-102042824D01*
X83935098Y-102042824D01*
X83984666Y-102460451D01*
X84114757Y-102860383D01*
X84272786Y-103156038D01*
X84588347Y-103312048D01*
X85900395Y-102000000D01*
X86259605Y-102000000D01*
X87571653Y-103312048D01*
X87887214Y-103156038D01*
X88078020Y-102781255D01*
X88192044Y-102376449D01*
X88224902Y-101957176D01*
X88175334Y-101539549D01*
X88045243Y-101139617D01*
X87887214Y-100843962D01*
X87571653Y-100687952D01*
X86259605Y-102000000D01*
X85900395Y-102000000D01*
X84588347Y-100687952D01*
X84272786Y-100843962D01*
X84081980Y-101218745D01*
X83967956Y-101623551D01*
X83935098Y-102042824D01*
X83138072Y-102042824D01*
X83138072Y-100508347D01*
X84767952Y-100508347D01*
X86080000Y-101820395D01*
X87392048Y-100508347D01*
X87236038Y-100192786D01*
X86861255Y-100001980D01*
X86456449Y-99887956D01*
X86037176Y-99855098D01*
X85619549Y-99904666D01*
X85219617Y-100034757D01*
X84923962Y-100192786D01*
X84767952Y-100508347D01*
X83138072Y-100508347D01*
X83138072Y-100500000D01*
X83125812Y-100375518D01*
X83089502Y-100255820D01*
X83030537Y-100145506D01*
X82951185Y-100048815D01*
X82854494Y-99969463D01*
X82744180Y-99910498D01*
X82624482Y-99874188D01*
X82500000Y-99861928D01*
X79500000Y-99861928D01*
X79375518Y-99874188D01*
X79255820Y-99910498D01*
X79145506Y-99969463D01*
X79048815Y-100048815D01*
X78969463Y-100145506D01*
X78910498Y-100255820D01*
X78874188Y-100375518D01*
X78861928Y-100500000D01*
X50127000Y-100500000D01*
X50127000Y-90571653D01*
X106687952Y-90571653D01*
X106843962Y-90887214D01*
X107218745Y-91078020D01*
X107623551Y-91192044D01*
X108042824Y-91224902D01*
X108460451Y-91175334D01*
X108860383Y-91045243D01*
X109156038Y-90887214D01*
X109312048Y-90571653D01*
X108000000Y-89259605D01*
X106687952Y-90571653D01*
X50127000Y-90571653D01*
X50127000Y-89122824D01*
X105855098Y-89122824D01*
X105904666Y-89540451D01*
X106034757Y-89940383D01*
X106192786Y-90236038D01*
X106508347Y-90392048D01*
X107820395Y-89080000D01*
X108179605Y-89080000D01*
X109491653Y-90392048D01*
X109807214Y-90236038D01*
X109998020Y-89861255D01*
X110112044Y-89456449D01*
X110144902Y-89037176D01*
X110095334Y-88619549D01*
X109965243Y-88219617D01*
X109807214Y-87923962D01*
X109491653Y-87767952D01*
X108179605Y-89080000D01*
X107820395Y-89080000D01*
X106508347Y-87767952D01*
X106192786Y-87923962D01*
X106001980Y-88298745D01*
X105887956Y-88703551D01*
X105855098Y-89122824D01*
X50127000Y-89122824D01*
X50127000Y-87896890D01*
X53558524Y-87896890D01*
X53603175Y-88044099D01*
X53728359Y-88306920D01*
X53902412Y-88540269D01*
X54118645Y-88735178D01*
X54368748Y-88884157D01*
X54643109Y-88981481D01*
X54873000Y-88860814D01*
X54873000Y-87667000D01*
X55127000Y-87667000D01*
X55127000Y-88860814D01*
X55356891Y-88981481D01*
X55631252Y-88884157D01*
X55881355Y-88735178D01*
X56097588Y-88540269D01*
X56271641Y-88306920D01*
X56396825Y-88044099D01*
X56441476Y-87896890D01*
X56320155Y-87667000D01*
X55127000Y-87667000D01*
X54873000Y-87667000D01*
X53679845Y-87667000D01*
X53558524Y-87896890D01*
X50127000Y-87896890D01*
X50127000Y-87588347D01*
X106687952Y-87588347D01*
X108000000Y-88900395D01*
X109312048Y-87588347D01*
X109156038Y-87272786D01*
X108781255Y-87081980D01*
X108376449Y-86967956D01*
X107957176Y-86935098D01*
X107539549Y-86984666D01*
X107139617Y-87114757D01*
X106843962Y-87272786D01*
X106687952Y-87588347D01*
X50127000Y-87588347D01*
X50127000Y-84150000D01*
X53511928Y-84150000D01*
X53511928Y-85850000D01*
X53524188Y-85974482D01*
X53560498Y-86094180D01*
X53619463Y-86204494D01*
X53698815Y-86301185D01*
X53795506Y-86380537D01*
X53905820Y-86439502D01*
X53986466Y-86463966D01*
X53902412Y-86539731D01*
X53728359Y-86773080D01*
X53603175Y-87035901D01*
X53558524Y-87183110D01*
X53679845Y-87413000D01*
X54873000Y-87413000D01*
X54873000Y-87393000D01*
X55127000Y-87393000D01*
X55127000Y-87413000D01*
X56320155Y-87413000D01*
X56441476Y-87183110D01*
X56396825Y-87035901D01*
X56271641Y-86773080D01*
X56097588Y-86539731D01*
X56013534Y-86463966D01*
X56094180Y-86439502D01*
X56204494Y-86380537D01*
X56301185Y-86301185D01*
X56380537Y-86204494D01*
X56439502Y-86094180D01*
X56475812Y-85974482D01*
X56488072Y-85850000D01*
X56488072Y-84150000D01*
X56475812Y-84025518D01*
X56439502Y-83905820D01*
X56380537Y-83795506D01*
X56301185Y-83698815D01*
X56204494Y-83619463D01*
X56094180Y-83560498D01*
X55974482Y-83524188D01*
X55850000Y-83511928D01*
X54150000Y-83511928D01*
X54025518Y-83524188D01*
X53905820Y-83560498D01*
X53795506Y-83619463D01*
X53698815Y-83698815D01*
X53619463Y-83795506D01*
X53560498Y-83905820D01*
X53524188Y-84025518D01*
X53511928Y-84150000D01*
X50127000Y-84150000D01*
X50127000Y-82500000D01*
X105861928Y-82500000D01*
X105861928Y-85500000D01*
X105874188Y-85624482D01*
X105910498Y-85744180D01*
X105969463Y-85854494D01*
X106048815Y-85951185D01*
X106145506Y-86030537D01*
X106255820Y-86089502D01*
X106375518Y-86125812D01*
X106500000Y-86138072D01*
X109500000Y-86138072D01*
X109624482Y-86125812D01*
X109744180Y-86089502D01*
X109854494Y-86030537D01*
X109951185Y-85951185D01*
X110030537Y-85854494D01*
X110089502Y-85744180D01*
X110125812Y-85624482D01*
X110138072Y-85500000D01*
X110138072Y-82500000D01*
X110125812Y-82375518D01*
X110089502Y-82255820D01*
X110030537Y-82145506D01*
X109951185Y-82048815D01*
X109854494Y-81969463D01*
X109744180Y-81910498D01*
X109624482Y-81874188D01*
X109500000Y-81861928D01*
X106500000Y-81861928D01*
X106375518Y-81874188D01*
X106255820Y-81910498D01*
X106145506Y-81969463D01*
X106048815Y-82048815D01*
X105969463Y-82145506D01*
X105910498Y-82255820D01*
X105874188Y-82375518D01*
X105861928Y-82500000D01*
X50127000Y-82500000D01*
X50127000Y-41737000D01*
X62735000Y-41737000D01*
X62735000Y-42037000D01*
X62779664Y-42236478D01*
X62862386Y-42423410D01*
X62979987Y-42590612D01*
X63127948Y-42731658D01*
X63193878Y-42773465D01*
X63185355Y-42860000D01*
X63203890Y-43048193D01*
X63258784Y-43229154D01*
X63347927Y-43395928D01*
X63467893Y-43542107D01*
X63614072Y-43662073D01*
X63780846Y-43751216D01*
X63961807Y-43806110D01*
X64102838Y-43820000D01*
X64497162Y-43820000D01*
X64638193Y-43806110D01*
X64819154Y-43751216D01*
X64985928Y-43662073D01*
X65132107Y-43542107D01*
X65252073Y-43395928D01*
X65341216Y-43229154D01*
X65396110Y-43048193D01*
X65414645Y-42860000D01*
X65405333Y-42765448D01*
X70540000Y-42765448D01*
X70540000Y-42954552D01*
X70576892Y-43140022D01*
X70649259Y-43314731D01*
X70754319Y-43471964D01*
X70888036Y-43605681D01*
X71045269Y-43710741D01*
X71219978Y-43783108D01*
X71405448Y-43820000D01*
X71594552Y-43820000D01*
X71780022Y-43783108D01*
X71954731Y-43710741D01*
X72111964Y-43605681D01*
X72245681Y-43471964D01*
X72350741Y-43314731D01*
X72423108Y-43140022D01*
X72460000Y-42954552D01*
X72460000Y-42854792D01*
X72499418Y-42841128D01*
X72672052Y-42731658D01*
X72820013Y-42590612D01*
X72937614Y-42423410D01*
X73020336Y-42236478D01*
X73065000Y-42037000D01*
X73065000Y-41737000D01*
X72157000Y-41737000D01*
X72157000Y-41757000D01*
X71903000Y-41757000D01*
X71903000Y-41737000D01*
X70995000Y-41737000D01*
X70995000Y-42037000D01*
X70996139Y-42042087D01*
X70888036Y-42114319D01*
X70754319Y-42248036D01*
X70649259Y-42405269D01*
X70576892Y-42579978D01*
X70540000Y-42765448D01*
X65405333Y-42765448D01*
X65396110Y-42671807D01*
X65341216Y-42490846D01*
X65252073Y-42324072D01*
X65132107Y-42177893D01*
X64985928Y-42057927D01*
X64819154Y-41968784D01*
X64805000Y-41964490D01*
X64805000Y-41737000D01*
X63897000Y-41737000D01*
X63897000Y-41757000D01*
X63643000Y-41757000D01*
X63643000Y-41737000D01*
X62735000Y-41737000D01*
X50127000Y-41737000D01*
X50127000Y-41183000D01*
X62735000Y-41183000D01*
X62735000Y-41483000D01*
X63643000Y-41483000D01*
X63643000Y-40443002D01*
X63897000Y-40443002D01*
X63897000Y-41483000D01*
X64805000Y-41483000D01*
X64805000Y-41183000D01*
X70995000Y-41183000D01*
X70995000Y-41483000D01*
X71903000Y-41483000D01*
X71903000Y-40443002D01*
X72157000Y-40443002D01*
X72157000Y-41483000D01*
X73065000Y-41483000D01*
X73065000Y-41183000D01*
X73020336Y-40983522D01*
X72937614Y-40796590D01*
X72820013Y-40629388D01*
X72672052Y-40488342D01*
X72499418Y-40378872D01*
X72316123Y-40315334D01*
X72157000Y-40443002D01*
X71903000Y-40443002D01*
X71743877Y-40315334D01*
X71560582Y-40378872D01*
X71387948Y-40488342D01*
X71239987Y-40629388D01*
X71122386Y-40796590D01*
X71039664Y-40983522D01*
X70995000Y-41183000D01*
X64805000Y-41183000D01*
X64760336Y-40983522D01*
X64677614Y-40796590D01*
X64560013Y-40629388D01*
X64412052Y-40488342D01*
X64239418Y-40378872D01*
X64056123Y-40315334D01*
X63897000Y-40443002D01*
X63643000Y-40443002D01*
X63483877Y-40315334D01*
X63300582Y-40378872D01*
X63127948Y-40488342D01*
X62979987Y-40629388D01*
X62862386Y-40796590D01*
X62779664Y-40983522D01*
X62735000Y-41183000D01*
X50127000Y-41183000D01*
X50127000Y-37740475D01*
X51365000Y-37740475D01*
X51365000Y-38259525D01*
X51466261Y-38768601D01*
X51664893Y-39248141D01*
X51953262Y-39679715D01*
X52320285Y-40046738D01*
X52751859Y-40335107D01*
X53231399Y-40533739D01*
X53740475Y-40635000D01*
X54259525Y-40635000D01*
X54768601Y-40533739D01*
X55248141Y-40335107D01*
X55679715Y-40046738D01*
X56046738Y-39679715D01*
X56335107Y-39248141D01*
X56533739Y-38768601D01*
X56635000Y-38259525D01*
X56635000Y-37740475D01*
X109365000Y-37740475D01*
X109365000Y-38259525D01*
X109466261Y-38768601D01*
X109664893Y-39248141D01*
X109953262Y-39679715D01*
X110320285Y-40046738D01*
X110751859Y-40335107D01*
X111231399Y-40533739D01*
X111740475Y-40635000D01*
X112259525Y-40635000D01*
X112768601Y-40533739D01*
X113248141Y-40335107D01*
X113679715Y-40046738D01*
X114046738Y-39679715D01*
X114335107Y-39248141D01*
X114533739Y-38768601D01*
X114635000Y-38259525D01*
X114635000Y-37740475D01*
X114533739Y-37231399D01*
X114335107Y-36751859D01*
X114046738Y-36320285D01*
X113679715Y-35953262D01*
X113248141Y-35664893D01*
X112768601Y-35466261D01*
X112259525Y-35365000D01*
X111740475Y-35365000D01*
X111231399Y-35466261D01*
X110751859Y-35664893D01*
X110320285Y-35953262D01*
X109953262Y-36320285D01*
X109664893Y-36751859D01*
X109466261Y-37231399D01*
X109365000Y-37740475D01*
X56635000Y-37740475D01*
X56533739Y-37231399D01*
X56335107Y-36751859D01*
X56046738Y-36320285D01*
X55679715Y-35953262D01*
X55430887Y-35787000D01*
X62375000Y-35787000D01*
X62375000Y-36087000D01*
X62419664Y-36286478D01*
X62502386Y-36473410D01*
X62619987Y-36640612D01*
X62767948Y-36781658D01*
X62940582Y-36891128D01*
X63123877Y-36954666D01*
X63283000Y-36826998D01*
X63283000Y-35787000D01*
X63537000Y-35787000D01*
X63537000Y-36826998D01*
X63696123Y-36954666D01*
X63879418Y-36891128D01*
X64052052Y-36781658D01*
X64200013Y-36640612D01*
X64317614Y-36473410D01*
X64400336Y-36286478D01*
X64445000Y-36087000D01*
X64445000Y-35787000D01*
X71355000Y-35787000D01*
X71355000Y-36087000D01*
X71399664Y-36286478D01*
X71482386Y-36473410D01*
X71599987Y-36640612D01*
X71747948Y-36781658D01*
X71920582Y-36891128D01*
X72103877Y-36954666D01*
X72263000Y-36826998D01*
X72263000Y-35787000D01*
X72517000Y-35787000D01*
X72517000Y-36826998D01*
X72676123Y-36954666D01*
X72859418Y-36891128D01*
X73032052Y-36781658D01*
X73180013Y-36640612D01*
X73297614Y-36473410D01*
X73380336Y-36286478D01*
X73425000Y-36087000D01*
X73425000Y-35927000D01*
X94265000Y-35927000D01*
X94265000Y-36352000D01*
X94312066Y-36575865D01*
X94401901Y-36786246D01*
X94531053Y-36975059D01*
X94694559Y-37135047D01*
X94886136Y-37260063D01*
X95119190Y-37343964D01*
X95298000Y-37218163D01*
X95298000Y-35927000D01*
X95552000Y-35927000D01*
X95552000Y-37218163D01*
X95730810Y-37343964D01*
X95963864Y-37260063D01*
X96155441Y-37135047D01*
X96318947Y-36975059D01*
X96448099Y-36786246D01*
X96537934Y-36575865D01*
X96585000Y-36352000D01*
X96585000Y-35927000D01*
X101415000Y-35927000D01*
X101415000Y-36352000D01*
X101462066Y-36575865D01*
X101551901Y-36786246D01*
X101681053Y-36975059D01*
X101844559Y-37135047D01*
X102036136Y-37260063D01*
X102269190Y-37343964D01*
X102448000Y-37218163D01*
X102448000Y-35927000D01*
X102702000Y-35927000D01*
X102702000Y-37218163D01*
X102880810Y-37343964D01*
X103113864Y-37260063D01*
X103305441Y-37135047D01*
X103468947Y-36975059D01*
X103598099Y-36786246D01*
X103687934Y-36575865D01*
X103735000Y-36352000D01*
X103735000Y-35927000D01*
X102702000Y-35927000D01*
X102448000Y-35927000D01*
X101415000Y-35927000D01*
X96585000Y-35927000D01*
X95552000Y-35927000D01*
X95298000Y-35927000D01*
X94265000Y-35927000D01*
X73425000Y-35927000D01*
X73425000Y-35787000D01*
X72517000Y-35787000D01*
X72263000Y-35787000D01*
X71355000Y-35787000D01*
X64445000Y-35787000D01*
X63537000Y-35787000D01*
X63283000Y-35787000D01*
X62375000Y-35787000D01*
X55430887Y-35787000D01*
X55248141Y-35664893D01*
X54768601Y-35466261D01*
X54259525Y-35365000D01*
X53740475Y-35365000D01*
X53231399Y-35466261D01*
X52751859Y-35664893D01*
X52320285Y-35953262D01*
X51953262Y-36320285D01*
X51664893Y-36751859D01*
X51466261Y-37231399D01*
X51365000Y-37740475D01*
X50127000Y-37740475D01*
X50127000Y-35233000D01*
X62375000Y-35233000D01*
X62375000Y-35533000D01*
X63283000Y-35533000D01*
X63283000Y-34493002D01*
X63537000Y-34493002D01*
X63537000Y-35533000D01*
X64445000Y-35533000D01*
X64445000Y-35233000D01*
X71355000Y-35233000D01*
X71355000Y-35533000D01*
X72263000Y-35533000D01*
X72263000Y-34493002D01*
X72517000Y-34493002D01*
X72517000Y-35533000D01*
X73425000Y-35533000D01*
X73425000Y-35248000D01*
X94265000Y-35248000D01*
X94265000Y-35673000D01*
X95298000Y-35673000D01*
X95298000Y-34381837D01*
X95552000Y-34381837D01*
X95552000Y-35673000D01*
X96585000Y-35673000D01*
X96585000Y-35248000D01*
X101415000Y-35248000D01*
X101415000Y-35673000D01*
X102448000Y-35673000D01*
X102448000Y-34381837D01*
X102702000Y-34381837D01*
X102702000Y-35673000D01*
X103735000Y-35673000D01*
X103735000Y-35248000D01*
X103687934Y-35024135D01*
X103598099Y-34813754D01*
X103468947Y-34624941D01*
X103305441Y-34464953D01*
X103113864Y-34339937D01*
X102880810Y-34256036D01*
X102702000Y-34381837D01*
X102448000Y-34381837D01*
X102269190Y-34256036D01*
X102036136Y-34339937D01*
X101844559Y-34464953D01*
X101681053Y-34624941D01*
X101551901Y-34813754D01*
X101462066Y-35024135D01*
X101415000Y-35248000D01*
X96585000Y-35248000D01*
X96537934Y-35024135D01*
X96448099Y-34813754D01*
X96318947Y-34624941D01*
X96155441Y-34464953D01*
X95963864Y-34339937D01*
X95730810Y-34256036D01*
X95552000Y-34381837D01*
X95298000Y-34381837D01*
X95119190Y-34256036D01*
X94886136Y-34339937D01*
X94694559Y-34464953D01*
X94531053Y-34624941D01*
X94401901Y-34813754D01*
X94312066Y-35024135D01*
X94265000Y-35248000D01*
X73425000Y-35248000D01*
X73425000Y-35233000D01*
X73380336Y-35033522D01*
X73297614Y-34846590D01*
X73180013Y-34679388D01*
X73032052Y-34538342D01*
X72859418Y-34428872D01*
X72676123Y-34365334D01*
X72517000Y-34493002D01*
X72263000Y-34493002D01*
X72103877Y-34365334D01*
X71920582Y-34428872D01*
X71747948Y-34538342D01*
X71599987Y-34679388D01*
X71482386Y-34846590D01*
X71399664Y-35033522D01*
X71355000Y-35233000D01*
X64445000Y-35233000D01*
X64400336Y-35033522D01*
X64317614Y-34846590D01*
X64200013Y-34679388D01*
X64052052Y-34538342D01*
X63879418Y-34428872D01*
X63696123Y-34365334D01*
X63537000Y-34493002D01*
X63283000Y-34493002D01*
X63123877Y-34365334D01*
X62940582Y-34428872D01*
X62767948Y-34538342D01*
X62619987Y-34679388D01*
X62502386Y-34846590D01*
X62419664Y-35033522D01*
X62375000Y-35233000D01*
X50127000Y-35233000D01*
X50127000Y-34127000D01*
X115873000Y-34127000D01*
X115873000Y-109873000D01*
%TA.AperFunction,Conductor*%
D18*
G36*
X115873000Y-109873000D02*
G01*
X50127000Y-109873000D01*
X50127000Y-105740475D01*
X51365000Y-105740475D01*
X51365000Y-106259525D01*
X51466261Y-106768601D01*
X51664893Y-107248141D01*
X51953262Y-107679715D01*
X52320285Y-108046738D01*
X52751859Y-108335107D01*
X53231399Y-108533739D01*
X53740475Y-108635000D01*
X54259525Y-108635000D01*
X54768601Y-108533739D01*
X55248141Y-108335107D01*
X55679715Y-108046738D01*
X56046738Y-107679715D01*
X56335107Y-107248141D01*
X56533739Y-106768601D01*
X56635000Y-106259525D01*
X56635000Y-105740475D01*
X109365000Y-105740475D01*
X109365000Y-106259525D01*
X109466261Y-106768601D01*
X109664893Y-107248141D01*
X109953262Y-107679715D01*
X110320285Y-108046738D01*
X110751859Y-108335107D01*
X111231399Y-108533739D01*
X111740475Y-108635000D01*
X112259525Y-108635000D01*
X112768601Y-108533739D01*
X113248141Y-108335107D01*
X113679715Y-108046738D01*
X114046738Y-107679715D01*
X114335107Y-107248141D01*
X114533739Y-106768601D01*
X114635000Y-106259525D01*
X114635000Y-105740475D01*
X114533739Y-105231399D01*
X114335107Y-104751859D01*
X114046738Y-104320285D01*
X113679715Y-103953262D01*
X113248141Y-103664893D01*
X112768601Y-103466261D01*
X112259525Y-103365000D01*
X111740475Y-103365000D01*
X111231399Y-103466261D01*
X110751859Y-103664893D01*
X110320285Y-103953262D01*
X109953262Y-104320285D01*
X109664893Y-104751859D01*
X109466261Y-105231399D01*
X109365000Y-105740475D01*
X56635000Y-105740475D01*
X56533739Y-105231399D01*
X56335107Y-104751859D01*
X56046738Y-104320285D01*
X55679715Y-103953262D01*
X55248141Y-103664893D01*
X54768601Y-103466261D01*
X54259525Y-103365000D01*
X53740475Y-103365000D01*
X53231399Y-103466261D01*
X52751859Y-103664893D01*
X52320285Y-103953262D01*
X51953262Y-104320285D01*
X51664893Y-104751859D01*
X51466261Y-105231399D01*
X51365000Y-105740475D01*
X50127000Y-105740475D01*
X50127000Y-100500000D01*
X78861928Y-100500000D01*
X78861928Y-103500000D01*
X78874188Y-103624482D01*
X78910498Y-103744180D01*
X78969463Y-103854494D01*
X79048815Y-103951185D01*
X79145506Y-104030537D01*
X79255820Y-104089502D01*
X79375518Y-104125812D01*
X79500000Y-104138072D01*
X82500000Y-104138072D01*
X82624482Y-104125812D01*
X82744180Y-104089502D01*
X82854494Y-104030537D01*
X82951185Y-103951185D01*
X83030537Y-103854494D01*
X83089502Y-103744180D01*
X83125812Y-103624482D01*
X83138072Y-103500000D01*
X83138072Y-103491653D01*
X84767952Y-103491653D01*
X84923962Y-103807214D01*
X85298745Y-103998020D01*
X85703551Y-104112044D01*
X86122824Y-104144902D01*
X86540451Y-104095334D01*
X86940383Y-103965243D01*
X87236038Y-103807214D01*
X87392048Y-103491653D01*
X86080000Y-102179605D01*
X84767952Y-103491653D01*
X83138072Y-103491653D01*
X83138072Y-102042824D01*
X83935098Y-102042824D01*
X83984666Y-102460451D01*
X84114757Y-102860383D01*
X84272786Y-103156038D01*
X84588347Y-103312048D01*
X85900395Y-102000000D01*
X86259605Y-102000000D01*
X87571653Y-103312048D01*
X87887214Y-103156038D01*
X88078020Y-102781255D01*
X88192044Y-102376449D01*
X88224902Y-101957176D01*
X88175334Y-101539549D01*
X88045243Y-101139617D01*
X87887214Y-100843962D01*
X87571653Y-100687952D01*
X86259605Y-102000000D01*
X85900395Y-102000000D01*
X84588347Y-100687952D01*
X84272786Y-100843962D01*
X84081980Y-101218745D01*
X83967956Y-101623551D01*
X83935098Y-102042824D01*
X83138072Y-102042824D01*
X83138072Y-100508347D01*
X84767952Y-100508347D01*
X86080000Y-101820395D01*
X87392048Y-100508347D01*
X87236038Y-100192786D01*
X86861255Y-100001980D01*
X86456449Y-99887956D01*
X86037176Y-99855098D01*
X85619549Y-99904666D01*
X85219617Y-100034757D01*
X84923962Y-100192786D01*
X84767952Y-100508347D01*
X83138072Y-100508347D01*
X83138072Y-100500000D01*
X83125812Y-100375518D01*
X83089502Y-100255820D01*
X83030537Y-100145506D01*
X82951185Y-100048815D01*
X82854494Y-99969463D01*
X82744180Y-99910498D01*
X82624482Y-99874188D01*
X82500000Y-99861928D01*
X79500000Y-99861928D01*
X79375518Y-99874188D01*
X79255820Y-99910498D01*
X79145506Y-99969463D01*
X79048815Y-100048815D01*
X78969463Y-100145506D01*
X78910498Y-100255820D01*
X78874188Y-100375518D01*
X78861928Y-100500000D01*
X50127000Y-100500000D01*
X50127000Y-90571653D01*
X106687952Y-90571653D01*
X106843962Y-90887214D01*
X107218745Y-91078020D01*
X107623551Y-91192044D01*
X108042824Y-91224902D01*
X108460451Y-91175334D01*
X108860383Y-91045243D01*
X109156038Y-90887214D01*
X109312048Y-90571653D01*
X108000000Y-89259605D01*
X106687952Y-90571653D01*
X50127000Y-90571653D01*
X50127000Y-89122824D01*
X105855098Y-89122824D01*
X105904666Y-89540451D01*
X106034757Y-89940383D01*
X106192786Y-90236038D01*
X106508347Y-90392048D01*
X107820395Y-89080000D01*
X108179605Y-89080000D01*
X109491653Y-90392048D01*
X109807214Y-90236038D01*
X109998020Y-89861255D01*
X110112044Y-89456449D01*
X110144902Y-89037176D01*
X110095334Y-88619549D01*
X109965243Y-88219617D01*
X109807214Y-87923962D01*
X109491653Y-87767952D01*
X108179605Y-89080000D01*
X107820395Y-89080000D01*
X106508347Y-87767952D01*
X106192786Y-87923962D01*
X106001980Y-88298745D01*
X105887956Y-88703551D01*
X105855098Y-89122824D01*
X50127000Y-89122824D01*
X50127000Y-87896890D01*
X53558524Y-87896890D01*
X53603175Y-88044099D01*
X53728359Y-88306920D01*
X53902412Y-88540269D01*
X54118645Y-88735178D01*
X54368748Y-88884157D01*
X54643109Y-88981481D01*
X54873000Y-88860814D01*
X54873000Y-87667000D01*
X55127000Y-87667000D01*
X55127000Y-88860814D01*
X55356891Y-88981481D01*
X55631252Y-88884157D01*
X55881355Y-88735178D01*
X56097588Y-88540269D01*
X56271641Y-88306920D01*
X56396825Y-88044099D01*
X56441476Y-87896890D01*
X56320155Y-87667000D01*
X55127000Y-87667000D01*
X54873000Y-87667000D01*
X53679845Y-87667000D01*
X53558524Y-87896890D01*
X50127000Y-87896890D01*
X50127000Y-87588347D01*
X106687952Y-87588347D01*
X108000000Y-88900395D01*
X109312048Y-87588347D01*
X109156038Y-87272786D01*
X108781255Y-87081980D01*
X108376449Y-86967956D01*
X107957176Y-86935098D01*
X107539549Y-86984666D01*
X107139617Y-87114757D01*
X106843962Y-87272786D01*
X106687952Y-87588347D01*
X50127000Y-87588347D01*
X50127000Y-84150000D01*
X53511928Y-84150000D01*
X53511928Y-85850000D01*
X53524188Y-85974482D01*
X53560498Y-86094180D01*
X53619463Y-86204494D01*
X53698815Y-86301185D01*
X53795506Y-86380537D01*
X53905820Y-86439502D01*
X53986466Y-86463966D01*
X53902412Y-86539731D01*
X53728359Y-86773080D01*
X53603175Y-87035901D01*
X53558524Y-87183110D01*
X53679845Y-87413000D01*
X54873000Y-87413000D01*
X54873000Y-87393000D01*
X55127000Y-87393000D01*
X55127000Y-87413000D01*
X56320155Y-87413000D01*
X56441476Y-87183110D01*
X56396825Y-87035901D01*
X56271641Y-86773080D01*
X56097588Y-86539731D01*
X56013534Y-86463966D01*
X56094180Y-86439502D01*
X56204494Y-86380537D01*
X56301185Y-86301185D01*
X56380537Y-86204494D01*
X56439502Y-86094180D01*
X56475812Y-85974482D01*
X56488072Y-85850000D01*
X56488072Y-84150000D01*
X56475812Y-84025518D01*
X56439502Y-83905820D01*
X56380537Y-83795506D01*
X56301185Y-83698815D01*
X56204494Y-83619463D01*
X56094180Y-83560498D01*
X55974482Y-83524188D01*
X55850000Y-83511928D01*
X54150000Y-83511928D01*
X54025518Y-83524188D01*
X53905820Y-83560498D01*
X53795506Y-83619463D01*
X53698815Y-83698815D01*
X53619463Y-83795506D01*
X53560498Y-83905820D01*
X53524188Y-84025518D01*
X53511928Y-84150000D01*
X50127000Y-84150000D01*
X50127000Y-82500000D01*
X105861928Y-82500000D01*
X105861928Y-85500000D01*
X105874188Y-85624482D01*
X105910498Y-85744180D01*
X105969463Y-85854494D01*
X106048815Y-85951185D01*
X106145506Y-86030537D01*
X106255820Y-86089502D01*
X106375518Y-86125812D01*
X106500000Y-86138072D01*
X109500000Y-86138072D01*
X109624482Y-86125812D01*
X109744180Y-86089502D01*
X109854494Y-86030537D01*
X109951185Y-85951185D01*
X110030537Y-85854494D01*
X110089502Y-85744180D01*
X110125812Y-85624482D01*
X110138072Y-85500000D01*
X110138072Y-82500000D01*
X110125812Y-82375518D01*
X110089502Y-82255820D01*
X110030537Y-82145506D01*
X109951185Y-82048815D01*
X109854494Y-81969463D01*
X109744180Y-81910498D01*
X109624482Y-81874188D01*
X109500000Y-81861928D01*
X106500000Y-81861928D01*
X106375518Y-81874188D01*
X106255820Y-81910498D01*
X106145506Y-81969463D01*
X106048815Y-82048815D01*
X105969463Y-82145506D01*
X105910498Y-82255820D01*
X105874188Y-82375518D01*
X105861928Y-82500000D01*
X50127000Y-82500000D01*
X50127000Y-41737000D01*
X62735000Y-41737000D01*
X62735000Y-42037000D01*
X62779664Y-42236478D01*
X62862386Y-42423410D01*
X62979987Y-42590612D01*
X63127948Y-42731658D01*
X63193878Y-42773465D01*
X63185355Y-42860000D01*
X63203890Y-43048193D01*
X63258784Y-43229154D01*
X63347927Y-43395928D01*
X63467893Y-43542107D01*
X63614072Y-43662073D01*
X63780846Y-43751216D01*
X63961807Y-43806110D01*
X64102838Y-43820000D01*
X64497162Y-43820000D01*
X64638193Y-43806110D01*
X64819154Y-43751216D01*
X64985928Y-43662073D01*
X65132107Y-43542107D01*
X65252073Y-43395928D01*
X65341216Y-43229154D01*
X65396110Y-43048193D01*
X65414645Y-42860000D01*
X65405333Y-42765448D01*
X70540000Y-42765448D01*
X70540000Y-42954552D01*
X70576892Y-43140022D01*
X70649259Y-43314731D01*
X70754319Y-43471964D01*
X70888036Y-43605681D01*
X71045269Y-43710741D01*
X71219978Y-43783108D01*
X71405448Y-43820000D01*
X71594552Y-43820000D01*
X71780022Y-43783108D01*
X71954731Y-43710741D01*
X72111964Y-43605681D01*
X72245681Y-43471964D01*
X72350741Y-43314731D01*
X72423108Y-43140022D01*
X72460000Y-42954552D01*
X72460000Y-42854792D01*
X72499418Y-42841128D01*
X72672052Y-42731658D01*
X72820013Y-42590612D01*
X72937614Y-42423410D01*
X73020336Y-42236478D01*
X73065000Y-42037000D01*
X73065000Y-41737000D01*
X72157000Y-41737000D01*
X72157000Y-41757000D01*
X71903000Y-41757000D01*
X71903000Y-41737000D01*
X70995000Y-41737000D01*
X70995000Y-42037000D01*
X70996139Y-42042087D01*
X70888036Y-42114319D01*
X70754319Y-42248036D01*
X70649259Y-42405269D01*
X70576892Y-42579978D01*
X70540000Y-42765448D01*
X65405333Y-42765448D01*
X65396110Y-42671807D01*
X65341216Y-42490846D01*
X65252073Y-42324072D01*
X65132107Y-42177893D01*
X64985928Y-42057927D01*
X64819154Y-41968784D01*
X64805000Y-41964490D01*
X64805000Y-41737000D01*
X63897000Y-41737000D01*
X63897000Y-41757000D01*
X63643000Y-41757000D01*
X63643000Y-41737000D01*
X62735000Y-41737000D01*
X50127000Y-41737000D01*
X50127000Y-41183000D01*
X62735000Y-41183000D01*
X62735000Y-41483000D01*
X63643000Y-41483000D01*
X63643000Y-40443002D01*
X63897000Y-40443002D01*
X63897000Y-41483000D01*
X64805000Y-41483000D01*
X64805000Y-41183000D01*
X70995000Y-41183000D01*
X70995000Y-41483000D01*
X71903000Y-41483000D01*
X71903000Y-40443002D01*
X72157000Y-40443002D01*
X72157000Y-41483000D01*
X73065000Y-41483000D01*
X73065000Y-41183000D01*
X73020336Y-40983522D01*
X72937614Y-40796590D01*
X72820013Y-40629388D01*
X72672052Y-40488342D01*
X72499418Y-40378872D01*
X72316123Y-40315334D01*
X72157000Y-40443002D01*
X71903000Y-40443002D01*
X71743877Y-40315334D01*
X71560582Y-40378872D01*
X71387948Y-40488342D01*
X71239987Y-40629388D01*
X71122386Y-40796590D01*
X71039664Y-40983522D01*
X70995000Y-41183000D01*
X64805000Y-41183000D01*
X64760336Y-40983522D01*
X64677614Y-40796590D01*
X64560013Y-40629388D01*
X64412052Y-40488342D01*
X64239418Y-40378872D01*
X64056123Y-40315334D01*
X63897000Y-40443002D01*
X63643000Y-40443002D01*
X63483877Y-40315334D01*
X63300582Y-40378872D01*
X63127948Y-40488342D01*
X62979987Y-40629388D01*
X62862386Y-40796590D01*
X62779664Y-40983522D01*
X62735000Y-41183000D01*
X50127000Y-41183000D01*
X50127000Y-37740475D01*
X51365000Y-37740475D01*
X51365000Y-38259525D01*
X51466261Y-38768601D01*
X51664893Y-39248141D01*
X51953262Y-39679715D01*
X52320285Y-40046738D01*
X52751859Y-40335107D01*
X53231399Y-40533739D01*
X53740475Y-40635000D01*
X54259525Y-40635000D01*
X54768601Y-40533739D01*
X55248141Y-40335107D01*
X55679715Y-40046738D01*
X56046738Y-39679715D01*
X56335107Y-39248141D01*
X56533739Y-38768601D01*
X56635000Y-38259525D01*
X56635000Y-37740475D01*
X109365000Y-37740475D01*
X109365000Y-38259525D01*
X109466261Y-38768601D01*
X109664893Y-39248141D01*
X109953262Y-39679715D01*
X110320285Y-40046738D01*
X110751859Y-40335107D01*
X111231399Y-40533739D01*
X111740475Y-40635000D01*
X112259525Y-40635000D01*
X112768601Y-40533739D01*
X113248141Y-40335107D01*
X113679715Y-40046738D01*
X114046738Y-39679715D01*
X114335107Y-39248141D01*
X114533739Y-38768601D01*
X114635000Y-38259525D01*
X114635000Y-37740475D01*
X114533739Y-37231399D01*
X114335107Y-36751859D01*
X114046738Y-36320285D01*
X113679715Y-35953262D01*
X113248141Y-35664893D01*
X112768601Y-35466261D01*
X112259525Y-35365000D01*
X111740475Y-35365000D01*
X111231399Y-35466261D01*
X110751859Y-35664893D01*
X110320285Y-35953262D01*
X109953262Y-36320285D01*
X109664893Y-36751859D01*
X109466261Y-37231399D01*
X109365000Y-37740475D01*
X56635000Y-37740475D01*
X56533739Y-37231399D01*
X56335107Y-36751859D01*
X56046738Y-36320285D01*
X55679715Y-35953262D01*
X55430887Y-35787000D01*
X62375000Y-35787000D01*
X62375000Y-36087000D01*
X62419664Y-36286478D01*
X62502386Y-36473410D01*
X62619987Y-36640612D01*
X62767948Y-36781658D01*
X62940582Y-36891128D01*
X63123877Y-36954666D01*
X63283000Y-36826998D01*
X63283000Y-35787000D01*
X63537000Y-35787000D01*
X63537000Y-36826998D01*
X63696123Y-36954666D01*
X63879418Y-36891128D01*
X64052052Y-36781658D01*
X64200013Y-36640612D01*
X64317614Y-36473410D01*
X64400336Y-36286478D01*
X64445000Y-36087000D01*
X64445000Y-35787000D01*
X71355000Y-35787000D01*
X71355000Y-36087000D01*
X71399664Y-36286478D01*
X71482386Y-36473410D01*
X71599987Y-36640612D01*
X71747948Y-36781658D01*
X71920582Y-36891128D01*
X72103877Y-36954666D01*
X72263000Y-36826998D01*
X72263000Y-35787000D01*
X72517000Y-35787000D01*
X72517000Y-36826998D01*
X72676123Y-36954666D01*
X72859418Y-36891128D01*
X73032052Y-36781658D01*
X73180013Y-36640612D01*
X73297614Y-36473410D01*
X73380336Y-36286478D01*
X73425000Y-36087000D01*
X73425000Y-35927000D01*
X94265000Y-35927000D01*
X94265000Y-36352000D01*
X94312066Y-36575865D01*
X94401901Y-36786246D01*
X94531053Y-36975059D01*
X94694559Y-37135047D01*
X94886136Y-37260063D01*
X95119190Y-37343964D01*
X95298000Y-37218163D01*
X95298000Y-35927000D01*
X95552000Y-35927000D01*
X95552000Y-37218163D01*
X95730810Y-37343964D01*
X95963864Y-37260063D01*
X96155441Y-37135047D01*
X96318947Y-36975059D01*
X96448099Y-36786246D01*
X96537934Y-36575865D01*
X96585000Y-36352000D01*
X96585000Y-35927000D01*
X101415000Y-35927000D01*
X101415000Y-36352000D01*
X101462066Y-36575865D01*
X101551901Y-36786246D01*
X101681053Y-36975059D01*
X101844559Y-37135047D01*
X102036136Y-37260063D01*
X102269190Y-37343964D01*
X102448000Y-37218163D01*
X102448000Y-35927000D01*
X102702000Y-35927000D01*
X102702000Y-37218163D01*
X102880810Y-37343964D01*
X103113864Y-37260063D01*
X103305441Y-37135047D01*
X103468947Y-36975059D01*
X103598099Y-36786246D01*
X103687934Y-36575865D01*
X103735000Y-36352000D01*
X103735000Y-35927000D01*
X102702000Y-35927000D01*
X102448000Y-35927000D01*
X101415000Y-35927000D01*
X96585000Y-35927000D01*
X95552000Y-35927000D01*
X95298000Y-35927000D01*
X94265000Y-35927000D01*
X73425000Y-35927000D01*
X73425000Y-35787000D01*
X72517000Y-35787000D01*
X72263000Y-35787000D01*
X71355000Y-35787000D01*
X64445000Y-35787000D01*
X63537000Y-35787000D01*
X63283000Y-35787000D01*
X62375000Y-35787000D01*
X55430887Y-35787000D01*
X55248141Y-35664893D01*
X54768601Y-35466261D01*
X54259525Y-35365000D01*
X53740475Y-35365000D01*
X53231399Y-35466261D01*
X52751859Y-35664893D01*
X52320285Y-35953262D01*
X51953262Y-36320285D01*
X51664893Y-36751859D01*
X51466261Y-37231399D01*
X51365000Y-37740475D01*
X50127000Y-37740475D01*
X50127000Y-35233000D01*
X62375000Y-35233000D01*
X62375000Y-35533000D01*
X63283000Y-35533000D01*
X63283000Y-34493002D01*
X63537000Y-34493002D01*
X63537000Y-35533000D01*
X64445000Y-35533000D01*
X64445000Y-35233000D01*
X71355000Y-35233000D01*
X71355000Y-35533000D01*
X72263000Y-35533000D01*
X72263000Y-34493002D01*
X72517000Y-34493002D01*
X72517000Y-35533000D01*
X73425000Y-35533000D01*
X73425000Y-35248000D01*
X94265000Y-35248000D01*
X94265000Y-35673000D01*
X95298000Y-35673000D01*
X95298000Y-34381837D01*
X95552000Y-34381837D01*
X95552000Y-35673000D01*
X96585000Y-35673000D01*
X96585000Y-35248000D01*
X101415000Y-35248000D01*
X101415000Y-35673000D01*
X102448000Y-35673000D01*
X102448000Y-34381837D01*
X102702000Y-34381837D01*
X102702000Y-35673000D01*
X103735000Y-35673000D01*
X103735000Y-35248000D01*
X103687934Y-35024135D01*
X103598099Y-34813754D01*
X103468947Y-34624941D01*
X103305441Y-34464953D01*
X103113864Y-34339937D01*
X102880810Y-34256036D01*
X102702000Y-34381837D01*
X102448000Y-34381837D01*
X102269190Y-34256036D01*
X102036136Y-34339937D01*
X101844559Y-34464953D01*
X101681053Y-34624941D01*
X101551901Y-34813754D01*
X101462066Y-35024135D01*
X101415000Y-35248000D01*
X96585000Y-35248000D01*
X96537934Y-35024135D01*
X96448099Y-34813754D01*
X96318947Y-34624941D01*
X96155441Y-34464953D01*
X95963864Y-34339937D01*
X95730810Y-34256036D01*
X95552000Y-34381837D01*
X95298000Y-34381837D01*
X95119190Y-34256036D01*
X94886136Y-34339937D01*
X94694559Y-34464953D01*
X94531053Y-34624941D01*
X94401901Y-34813754D01*
X94312066Y-35024135D01*
X94265000Y-35248000D01*
X73425000Y-35248000D01*
X73425000Y-35233000D01*
X73380336Y-35033522D01*
X73297614Y-34846590D01*
X73180013Y-34679388D01*
X73032052Y-34538342D01*
X72859418Y-34428872D01*
X72676123Y-34365334D01*
X72517000Y-34493002D01*
X72263000Y-34493002D01*
X72103877Y-34365334D01*
X71920582Y-34428872D01*
X71747948Y-34538342D01*
X71599987Y-34679388D01*
X71482386Y-34846590D01*
X71399664Y-35033522D01*
X71355000Y-35233000D01*
X64445000Y-35233000D01*
X64400336Y-35033522D01*
X64317614Y-34846590D01*
X64200013Y-34679388D01*
X64052052Y-34538342D01*
X63879418Y-34428872D01*
X63696123Y-34365334D01*
X63537000Y-34493002D01*
X63283000Y-34493002D01*
X63123877Y-34365334D01*
X62940582Y-34428872D01*
X62767948Y-34538342D01*
X62619987Y-34679388D01*
X62502386Y-34846590D01*
X62419664Y-35033522D01*
X62375000Y-35233000D01*
X50127000Y-35233000D01*
X50127000Y-34127000D01*
X115873000Y-34127000D01*
X115873000Y-109873000D01*
G37*
%TD.AperFunction*%
%TD*%
M02*
