M48
; DRILL file {KiCad (5.1.9)-1} date 08/17/21 00:54:59
; FORMAT={-:-/ absolute / inch / decimal}
; #@! TF.CreationDate,2021-08-17T00:54:59-04:00
; #@! TF.GenerationSoftware,Kicad,Pcbnew,(5.1.9)-1
; #@! TF.FileFunction,Plated,1,2,PTH
FMAT,2
INCH
T1C0.0177
T2C0.0197
T3C0.0354
T4C0.0394
T5C0.0598
%
G90
G05
T3
X2.5Y-1.815
X2.5433Y-3.0709
X2.563Y-1.5512
X2.6969Y-3.5039
X2.7795Y-1.5551
X2.8071Y-3.1378
X2.8543Y-1.815
X3.0Y-3.4252
X3.2677Y-1.6929
X3.2677Y-2.0512
X3.6339Y-1.4134
X3.7087Y-1.5197
X3.8583Y-2.5197
X3.8583Y-2.7165
X4.0866Y-1.5394
X4.1339Y-2.8346
X4.1496Y-1.4134
X4.1732Y-2.2835
T4
X2.1654Y-3.3465
X2.1654Y-3.4465
T5
X3.189Y-4.0157
X3.389Y-4.0157
X4.252Y-3.3071
X4.252Y-3.5071
T1
G00X3.7569Y-1.4252
M15
G01X3.7569Y-1.3937
M16
G05
G00X4.0384Y-1.3937
M15
G01X4.0384Y-1.4252
M16
G05
T2
G00X2.4965Y-1.4157
M15
G01X2.4965Y-1.3921
M16
G05
G00X2.5106Y-1.65
M15
G01X2.5106Y-1.6264
M16
G05
G00X2.8358Y-1.65
M15
G01X2.8358Y-1.6264
M16
G05
G00X2.85Y-1.4157
M15
G01X2.85Y-1.3921
M16
G05
T0
M30
