%TF.GenerationSoftware,KiCad,Pcbnew,(5.1.9)-1*%
%TF.CreationDate,2021-08-17T00:54:57-04:00*%
%TF.ProjectId,cargador,63617267-6164-46f7-922e-6b696361645f,rev?*%
%TF.SameCoordinates,Original*%
%TF.FileFunction,Copper,L1,Top*%
%TF.FilePolarity,Positive*%
%FSLAX46Y46*%
G04 Gerber Fmt 4.6, Leading zero omitted, Abs format (unit mm)*
G04 Created by KiCad (PCBNEW (5.1.9)-1) date 2021-08-17 00:54:57*
%MOMM*%
%LPD*%
G01*
G04 APERTURE LIST*
%TA.AperFunction,NonConductor*%
%ADD10C,0.200000*%
%TD*%
%TA.AperFunction,SMDPad,CuDef*%
%ADD11R,0.300000X0.700000*%
%TD*%
%TA.AperFunction,ComponentPad*%
%ADD12O,0.800000X1.400000*%
%TD*%
%TA.AperFunction,ComponentPad*%
%ADD13C,3.000000*%
%TD*%
%TA.AperFunction,ComponentPad*%
%ADD14R,3.000000X3.000000*%
%TD*%
%TA.AperFunction,SMDPad,CuDef*%
%ADD15R,1.150000X1.450000*%
%TD*%
%TA.AperFunction,ComponentPad*%
%ADD16O,1.050000X1.900000*%
%TD*%
%TA.AperFunction,SMDPad,CuDef*%
%ADD17R,1.750000X1.900000*%
%TD*%
%TA.AperFunction,SMDPad,CuDef*%
%ADD18R,0.400000X1.400000*%
%TD*%
%TA.AperFunction,ComponentPad*%
%ADD19O,1.700000X1.700000*%
%TD*%
%TA.AperFunction,ComponentPad*%
%ADD20R,1.700000X1.700000*%
%TD*%
%TA.AperFunction,SMDPad,CuDef*%
%ADD21R,1.100000X0.600000*%
%TD*%
%TA.AperFunction,SMDPad,CuDef*%
%ADD22R,3.510000X2.540000*%
%TD*%
%TA.AperFunction,SMDPad,CuDef*%
%ADD23R,1.060000X0.650000*%
%TD*%
%TA.AperFunction,ViaPad*%
%ADD24C,1.800000*%
%TD*%
%TA.AperFunction,Conductor*%
%ADD25C,1.000000*%
%TD*%
%TA.AperFunction,Conductor*%
%ADD26C,0.400000*%
%TD*%
%TA.AperFunction,Conductor*%
%ADD27C,0.500000*%
%TD*%
%TA.AperFunction,Conductor*%
%ADD28C,0.250000*%
%TD*%
%TA.AperFunction,Conductor*%
%ADD29C,0.750000*%
%TD*%
%TA.AperFunction,Conductor*%
%ADD30C,2.000000*%
%TD*%
G04 APERTURE END LIST*
D10*
X116000000Y-34000000D02*
X114000000Y-34000000D01*
X116000000Y-110000000D02*
X116000000Y-34000000D01*
X50000000Y-110000000D02*
X116000000Y-110000000D01*
X50000000Y-34000000D02*
X50000000Y-110000000D01*
X114000000Y-34000000D02*
X50000000Y-34000000D01*
D11*
%TO.P,J1,B12*%
%TO.N,GND*%
X70900000Y-41820000D03*
%TO.P,J1,B11*%
%TO.N,Net-(J1-PadB11)*%
X70400000Y-41820000D03*
%TO.P,J1,B10*%
%TO.N,Net-(J1-PadB10)*%
X69900000Y-41820000D03*
%TO.P,J1,B9*%
%TO.N,Vin*%
X69400000Y-41820000D03*
%TO.P,J1,B8*%
%TO.N,Net-(J1-PadB8)*%
X68900000Y-41820000D03*
%TO.P,J1,B7*%
%TO.N,Net-(J1-PadB7)*%
X68400000Y-41820000D03*
%TO.P,J1,B6*%
%TO.N,Net-(J1-PadB6)*%
X67900000Y-41820000D03*
%TO.P,J1,B5*%
%TO.N,Net-(J1-PadB5)*%
X67400000Y-41820000D03*
%TO.P,J1,B4*%
%TO.N,Vin*%
X66900000Y-41820000D03*
%TO.P,J1,B3*%
%TO.N,Net-(J1-PadB3)*%
X66400000Y-41820000D03*
%TO.P,J1,B2*%
%TO.N,Net-(J1-PadB2)*%
X65900000Y-41820000D03*
D12*
%TO.P,J1,S1*%
%TO.N,GND*%
X72390000Y-35660000D03*
X63410000Y-35660000D03*
X63770000Y-41610000D03*
D11*
%TO.P,J1,B1*%
X65400000Y-41820000D03*
%TO.P,J1,A11*%
%TO.N,Net-(J1-PadA11)*%
X65650000Y-43520000D03*
%TO.P,J1,A8*%
%TO.N,Net-(J1-PadA8)*%
X67150000Y-43520000D03*
%TO.P,J1,A9*%
%TO.N,Vin*%
X66650000Y-43520000D03*
%TO.P,J1,A10*%
%TO.N,Net-(J1-PadA10)*%
X66150000Y-43520000D03*
%TO.P,J1,A12*%
%TO.N,GND*%
X65150000Y-43520000D03*
%TO.P,J1,A7*%
%TO.N,Net-(J1-PadA7)*%
X67650000Y-43520000D03*
%TO.P,J1,A6*%
%TO.N,Net-(J1-PadA6)*%
X68150000Y-43520000D03*
%TO.P,J1,A5*%
%TO.N,Net-(J1-PadA5)*%
X68650000Y-43520000D03*
%TO.P,J1,A4*%
%TO.N,Vin*%
X69150000Y-43520000D03*
%TO.P,J1,A3*%
%TO.N,Net-(J1-PadA3)*%
X69650000Y-43520000D03*
%TO.P,J1,A2*%
%TO.N,Net-(J1-PadA2)*%
X70150000Y-43520000D03*
%TO.P,J1,A1*%
%TO.N,GND*%
X70650000Y-43520000D03*
D12*
%TO.P,J1,S1*%
X72030000Y-41610000D03*
%TD*%
D13*
%TO.P,VBUS_Out1,2*%
%TO.N,GND*%
X108000000Y-89080000D03*
D14*
%TO.P,VBUS_Out1,1*%
%TO.N,Vin*%
X108000000Y-84000000D03*
%TD*%
D15*
%TO.P,USB_IN1,6*%
%TO.N,GND*%
X101320000Y-38030000D03*
X96680000Y-38030000D03*
D16*
X95425000Y-35800000D03*
X102575000Y-35800000D03*
D17*
X100125000Y-35800000D03*
D18*
%TO.P,USB_IN1,3*%
%TO.N,Net-(USB_IN1-Pad3)*%
X99000000Y-38450000D03*
%TO.P,USB_IN1,4*%
%TO.N,Net-(USB_IN1-Pad4)*%
X98350000Y-38450000D03*
%TO.P,USB_IN1,5*%
%TO.N,GND*%
X97700000Y-38450000D03*
%TO.P,USB_IN1,1*%
%TO.N,Vin*%
X100300000Y-38450000D03*
%TO.P,USB_IN1,2*%
%TO.N,Net-(USB_IN1-Pad2)*%
X99650000Y-38450000D03*
D17*
%TO.P,USB_IN1,6*%
%TO.N,GND*%
X97875000Y-35800000D03*
%TD*%
D19*
%TO.P,Out3v3,2*%
%TO.N,GND*%
X55000000Y-87540000D03*
D20*
%TO.P,Out3v3,1*%
%TO.N,Vout*%
X55000000Y-85000000D03*
%TD*%
D13*
%TO.P,BattOut,2*%
%TO.N,GND*%
X86080000Y-102000000D03*
D14*
%TO.P,BattOut,1*%
%TO.N,Battery_Out*%
X81000000Y-102000000D03*
%TD*%
%TO.P,R202,2*%
%TO.N,Net-(BMSLI-ION1-Pad1)*%
%TA.AperFunction,SMDPad,CuDef*%
G36*
G01*
X101575000Y-58725000D02*
X101575000Y-59275000D01*
G75*
G02*
X101375000Y-59475000I-200000J0D01*
G01*
X100975000Y-59475000D01*
G75*
G02*
X100775000Y-59275000I0J200000D01*
G01*
X100775000Y-58725000D01*
G75*
G02*
X100975000Y-58525000I200000J0D01*
G01*
X101375000Y-58525000D01*
G75*
G02*
X101575000Y-58725000I0J-200000D01*
G01*
G37*
%TD.AperFunction*%
%TO.P,R202,1*%
%TO.N,Net-(D1-Pad1)*%
%TA.AperFunction,SMDPad,CuDef*%
G36*
G01*
X103225000Y-58725000D02*
X103225000Y-59275000D01*
G75*
G02*
X103025000Y-59475000I-200000J0D01*
G01*
X102625000Y-59475000D01*
G75*
G02*
X102425000Y-59275000I0J200000D01*
G01*
X102425000Y-58725000D01*
G75*
G02*
X102625000Y-58525000I200000J0D01*
G01*
X103025000Y-58525000D01*
G75*
G02*
X103225000Y-58725000I0J-200000D01*
G01*
G37*
%TD.AperFunction*%
%TD*%
%TO.P,R201,2*%
%TO.N,Net-(BMSLI-ION1-Pad5)*%
%TA.AperFunction,SMDPad,CuDef*%
G36*
G01*
X105725000Y-62425000D02*
X106275000Y-62425000D01*
G75*
G02*
X106475000Y-62625000I0J-200000D01*
G01*
X106475000Y-63025000D01*
G75*
G02*
X106275000Y-63225000I-200000J0D01*
G01*
X105725000Y-63225000D01*
G75*
G02*
X105525000Y-63025000I0J200000D01*
G01*
X105525000Y-62625000D01*
G75*
G02*
X105725000Y-62425000I200000J0D01*
G01*
G37*
%TD.AperFunction*%
%TO.P,R201,1*%
%TO.N,GND*%
%TA.AperFunction,SMDPad,CuDef*%
G36*
G01*
X105725000Y-60775000D02*
X106275000Y-60775000D01*
G75*
G02*
X106475000Y-60975000I0J-200000D01*
G01*
X106475000Y-61375000D01*
G75*
G02*
X106275000Y-61575000I-200000J0D01*
G01*
X105725000Y-61575000D01*
G75*
G02*
X105525000Y-61375000I0J200000D01*
G01*
X105525000Y-60975000D01*
G75*
G02*
X105725000Y-60775000I200000J0D01*
G01*
G37*
%TD.AperFunction*%
%TD*%
%TO.P,R102,2*%
%TO.N,Net-(BUCK3.3-Pad5)*%
%TA.AperFunction,SMDPad,CuDef*%
G36*
G01*
X64875000Y-74575000D02*
X64325000Y-74575000D01*
G75*
G02*
X64125000Y-74375000I0J200000D01*
G01*
X64125000Y-73975000D01*
G75*
G02*
X64325000Y-73775000I200000J0D01*
G01*
X64875000Y-73775000D01*
G75*
G02*
X65075000Y-73975000I0J-200000D01*
G01*
X65075000Y-74375000D01*
G75*
G02*
X64875000Y-74575000I-200000J0D01*
G01*
G37*
%TD.AperFunction*%
%TO.P,R102,1*%
%TO.N,GND*%
%TA.AperFunction,SMDPad,CuDef*%
G36*
G01*
X64875000Y-76225000D02*
X64325000Y-76225000D01*
G75*
G02*
X64125000Y-76025000I0J200000D01*
G01*
X64125000Y-75625000D01*
G75*
G02*
X64325000Y-75425000I200000J0D01*
G01*
X64875000Y-75425000D01*
G75*
G02*
X65075000Y-75625000I0J-200000D01*
G01*
X65075000Y-76025000D01*
G75*
G02*
X64875000Y-76225000I-200000J0D01*
G01*
G37*
%TD.AperFunction*%
%TD*%
%TO.P,R101,2*%
%TO.N,Vout*%
%TA.AperFunction,SMDPad,CuDef*%
G36*
G01*
X71725000Y-75425000D02*
X72275000Y-75425000D01*
G75*
G02*
X72475000Y-75625000I0J-200000D01*
G01*
X72475000Y-76025000D01*
G75*
G02*
X72275000Y-76225000I-200000J0D01*
G01*
X71725000Y-76225000D01*
G75*
G02*
X71525000Y-76025000I0J200000D01*
G01*
X71525000Y-75625000D01*
G75*
G02*
X71725000Y-75425000I200000J0D01*
G01*
G37*
%TD.AperFunction*%
%TO.P,R101,1*%
%TO.N,Net-(BUCK3.3-Pad5)*%
%TA.AperFunction,SMDPad,CuDef*%
G36*
G01*
X71725000Y-73775000D02*
X72275000Y-73775000D01*
G75*
G02*
X72475000Y-73975000I0J-200000D01*
G01*
X72475000Y-74375000D01*
G75*
G02*
X72275000Y-74575000I-200000J0D01*
G01*
X71725000Y-74575000D01*
G75*
G02*
X71525000Y-74375000I0J200000D01*
G01*
X71525000Y-73975000D01*
G75*
G02*
X71725000Y-73775000I200000J0D01*
G01*
G37*
%TD.AperFunction*%
%TD*%
%TO.P,L101,2*%
%TO.N,Vout*%
%TA.AperFunction,SMDPad,CuDef*%
G36*
G01*
X73343750Y-84550000D02*
X73856250Y-84550000D01*
G75*
G02*
X74075000Y-84768750I0J-218750D01*
G01*
X74075000Y-85206250D01*
G75*
G02*
X73856250Y-85425000I-218750J0D01*
G01*
X73343750Y-85425000D01*
G75*
G02*
X73125000Y-85206250I0J218750D01*
G01*
X73125000Y-84768750D01*
G75*
G02*
X73343750Y-84550000I218750J0D01*
G01*
G37*
%TD.AperFunction*%
%TO.P,L101,1*%
%TO.N,Net-(BUCK3.3-Pad3)*%
%TA.AperFunction,SMDPad,CuDef*%
G36*
G01*
X73343750Y-82975000D02*
X73856250Y-82975000D01*
G75*
G02*
X74075000Y-83193750I0J-218750D01*
G01*
X74075000Y-83631250D01*
G75*
G02*
X73856250Y-83850000I-218750J0D01*
G01*
X73343750Y-83850000D01*
G75*
G02*
X73125000Y-83631250I0J218750D01*
G01*
X73125000Y-83193750D01*
G75*
G02*
X73343750Y-82975000I218750J0D01*
G01*
G37*
%TD.AperFunction*%
%TD*%
%TO.P,D1,2*%
%TO.N,Vin*%
%TA.AperFunction,SMDPad,CuDef*%
G36*
G01*
X101650000Y-54743750D02*
X101650000Y-55256250D01*
G75*
G02*
X101431250Y-55475000I-218750J0D01*
G01*
X100993750Y-55475000D01*
G75*
G02*
X100775000Y-55256250I0J218750D01*
G01*
X100775000Y-54743750D01*
G75*
G02*
X100993750Y-54525000I218750J0D01*
G01*
X101431250Y-54525000D01*
G75*
G02*
X101650000Y-54743750I0J-218750D01*
G01*
G37*
%TD.AperFunction*%
%TO.P,D1,1*%
%TO.N,Net-(D1-Pad1)*%
%TA.AperFunction,SMDPad,CuDef*%
G36*
G01*
X103225000Y-54743750D02*
X103225000Y-55256250D01*
G75*
G02*
X103006250Y-55475000I-218750J0D01*
G01*
X102568750Y-55475000D01*
G75*
G02*
X102350000Y-55256250I0J218750D01*
G01*
X102350000Y-54743750D01*
G75*
G02*
X102568750Y-54525000I218750J0D01*
G01*
X103006250Y-54525000D01*
G75*
G02*
X103225000Y-54743750I0J-218750D01*
G01*
G37*
%TD.AperFunction*%
%TD*%
%TO.P,C202,2*%
%TO.N,GND*%
%TA.AperFunction,SMDPad,CuDef*%
G36*
G01*
X102325000Y-72250000D02*
X102325000Y-71750000D01*
G75*
G02*
X102550000Y-71525000I225000J0D01*
G01*
X103000000Y-71525000D01*
G75*
G02*
X103225000Y-71750000I0J-225000D01*
G01*
X103225000Y-72250000D01*
G75*
G02*
X103000000Y-72475000I-225000J0D01*
G01*
X102550000Y-72475000D01*
G75*
G02*
X102325000Y-72250000I0J225000D01*
G01*
G37*
%TD.AperFunction*%
%TO.P,C202,1*%
%TO.N,Battery_Out*%
%TA.AperFunction,SMDPad,CuDef*%
G36*
G01*
X100775000Y-72250000D02*
X100775000Y-71750000D01*
G75*
G02*
X101000000Y-71525000I225000J0D01*
G01*
X101450000Y-71525000D01*
G75*
G02*
X101675000Y-71750000I0J-225000D01*
G01*
X101675000Y-72250000D01*
G75*
G02*
X101450000Y-72475000I-225000J0D01*
G01*
X101000000Y-72475000D01*
G75*
G02*
X100775000Y-72250000I0J225000D01*
G01*
G37*
%TD.AperFunction*%
%TD*%
%TO.P,C201,2*%
%TO.N,Vin*%
%TA.AperFunction,SMDPad,CuDef*%
G36*
G01*
X102325000Y-69250000D02*
X102325000Y-68750000D01*
G75*
G02*
X102550000Y-68525000I225000J0D01*
G01*
X103000000Y-68525000D01*
G75*
G02*
X103225000Y-68750000I0J-225000D01*
G01*
X103225000Y-69250000D01*
G75*
G02*
X103000000Y-69475000I-225000J0D01*
G01*
X102550000Y-69475000D01*
G75*
G02*
X102325000Y-69250000I0J225000D01*
G01*
G37*
%TD.AperFunction*%
%TO.P,C201,1*%
%TO.N,GND*%
%TA.AperFunction,SMDPad,CuDef*%
G36*
G01*
X100775000Y-69250000D02*
X100775000Y-68750000D01*
G75*
G02*
X101000000Y-68525000I225000J0D01*
G01*
X101450000Y-68525000D01*
G75*
G02*
X101675000Y-68750000I0J-225000D01*
G01*
X101675000Y-69250000D01*
G75*
G02*
X101450000Y-69475000I-225000J0D01*
G01*
X101000000Y-69475000D01*
G75*
G02*
X100775000Y-69250000I0J225000D01*
G01*
G37*
%TD.AperFunction*%
%TD*%
%TO.P,C103,2*%
%TO.N,GND*%
%TA.AperFunction,SMDPad,CuDef*%
G36*
G01*
X68250000Y-86125000D02*
X68750000Y-86125000D01*
G75*
G02*
X68975000Y-86350000I0J-225000D01*
G01*
X68975000Y-86800000D01*
G75*
G02*
X68750000Y-87025000I-225000J0D01*
G01*
X68250000Y-87025000D01*
G75*
G02*
X68025000Y-86800000I0J225000D01*
G01*
X68025000Y-86350000D01*
G75*
G02*
X68250000Y-86125000I225000J0D01*
G01*
G37*
%TD.AperFunction*%
%TO.P,C103,1*%
%TO.N,Vout*%
%TA.AperFunction,SMDPad,CuDef*%
G36*
G01*
X68250000Y-84575000D02*
X68750000Y-84575000D01*
G75*
G02*
X68975000Y-84800000I0J-225000D01*
G01*
X68975000Y-85250000D01*
G75*
G02*
X68750000Y-85475000I-225000J0D01*
G01*
X68250000Y-85475000D01*
G75*
G02*
X68025000Y-85250000I0J225000D01*
G01*
X68025000Y-84800000D01*
G75*
G02*
X68250000Y-84575000I225000J0D01*
G01*
G37*
%TD.AperFunction*%
%TD*%
%TO.P,C102,2*%
%TO.N,Vout*%
%TA.AperFunction,SMDPad,CuDef*%
G36*
G01*
X68250000Y-75325000D02*
X68750000Y-75325000D01*
G75*
G02*
X68975000Y-75550000I0J-225000D01*
G01*
X68975000Y-76000000D01*
G75*
G02*
X68750000Y-76225000I-225000J0D01*
G01*
X68250000Y-76225000D01*
G75*
G02*
X68025000Y-76000000I0J225000D01*
G01*
X68025000Y-75550000D01*
G75*
G02*
X68250000Y-75325000I225000J0D01*
G01*
G37*
%TD.AperFunction*%
%TO.P,C102,1*%
%TO.N,Net-(BUCK3.3-Pad5)*%
%TA.AperFunction,SMDPad,CuDef*%
G36*
G01*
X68250000Y-73775000D02*
X68750000Y-73775000D01*
G75*
G02*
X68975000Y-74000000I0J-225000D01*
G01*
X68975000Y-74450000D01*
G75*
G02*
X68750000Y-74675000I-225000J0D01*
G01*
X68250000Y-74675000D01*
G75*
G02*
X68025000Y-74450000I0J225000D01*
G01*
X68025000Y-74000000D01*
G75*
G02*
X68250000Y-73775000I225000J0D01*
G01*
G37*
%TD.AperFunction*%
%TD*%
%TO.P,C101,2*%
%TO.N,Battery_Out*%
%TA.AperFunction,SMDPad,CuDef*%
G36*
G01*
X76450000Y-83775000D02*
X75950000Y-83775000D01*
G75*
G02*
X75725000Y-83550000I0J225000D01*
G01*
X75725000Y-83100000D01*
G75*
G02*
X75950000Y-82875000I225000J0D01*
G01*
X76450000Y-82875000D01*
G75*
G02*
X76675000Y-83100000I0J-225000D01*
G01*
X76675000Y-83550000D01*
G75*
G02*
X76450000Y-83775000I-225000J0D01*
G01*
G37*
%TD.AperFunction*%
%TO.P,C101,1*%
%TO.N,GND*%
%TA.AperFunction,SMDPad,CuDef*%
G36*
G01*
X76450000Y-85325000D02*
X75950000Y-85325000D01*
G75*
G02*
X75725000Y-85100000I0J225000D01*
G01*
X75725000Y-84650000D01*
G75*
G02*
X75950000Y-84425000I225000J0D01*
G01*
X76450000Y-84425000D01*
G75*
G02*
X76675000Y-84650000I0J-225000D01*
G01*
X76675000Y-85100000D01*
G75*
G02*
X76450000Y-85325000I-225000J0D01*
G01*
G37*
%TD.AperFunction*%
%TD*%
D21*
%TO.P,BUCK3.3,5*%
%TO.N,Net-(BUCK3.3-Pad5)*%
X76200000Y-78750000D03*
%TO.P,BUCK3.3,4*%
%TO.N,Battery_Out*%
X76200000Y-80650000D03*
%TO.P,BUCK3.3,3*%
%TO.N,Net-(BUCK3.3-Pad3)*%
X73600000Y-80650000D03*
%TO.P,BUCK3.3,2*%
%TO.N,GND*%
X73600000Y-79700000D03*
%TO.P,BUCK3.3,1*%
%TO.N,Battery_Out*%
X73600000Y-78750000D03*
%TD*%
D22*
%TO.P,BT1,2*%
%TO.N,GND*%
X83000000Y-47320000D03*
%TO.P,BT1,1*%
%TO.N,Battery_Out*%
X83000000Y-76680000D03*
%TD*%
D23*
%TO.P,BMSLI-ION1,5*%
%TO.N,Net-(BMSLI-ION1-Pad5)*%
X103100000Y-63050000D03*
%TO.P,BMSLI-ION1,4*%
%TO.N,Vin*%
X103100000Y-64950000D03*
%TO.P,BMSLI-ION1,3*%
%TO.N,Battery_Out*%
X100900000Y-64950000D03*
%TO.P,BMSLI-ION1,2*%
%TO.N,GND*%
X100900000Y-64000000D03*
%TO.P,BMSLI-ION1,1*%
%TO.N,Net-(BMSLI-ION1-Pad1)*%
X100900000Y-63050000D03*
%TD*%
D24*
%TO.N,GND*%
X105000000Y-72000000D03*
X98000000Y-69000000D03*
X106000000Y-58000000D03*
X83000000Y-43000000D03*
X98000000Y-64000000D03*
X94200000Y-38600000D03*
X103800000Y-39100000D03*
X92300000Y-35900000D03*
X105400000Y-35900000D03*
X65100000Y-39400000D03*
X63500000Y-46100000D03*
X72500000Y-46100000D03*
X70600000Y-39500000D03*
X83000000Y-52100000D03*
X76200000Y-87000000D03*
X71300000Y-79700000D03*
X68500000Y-89000000D03*
X64600000Y-78000000D03*
%TD*%
D25*
%TO.N,Net-(BMSLI-ION1-Pad5)*%
X105775000Y-63050000D02*
X106000000Y-62825000D01*
X103100000Y-63050000D02*
X105775000Y-63050000D01*
D26*
%TO.N,Vin*%
X101212500Y-55000000D02*
X101212500Y-39912499D01*
X101212500Y-50212500D02*
X110000000Y-59000000D01*
X110000000Y-59000000D02*
X110000000Y-63000000D01*
X108050000Y-64950000D02*
X103100000Y-64950000D01*
X110000000Y-63000000D02*
X108050000Y-64950000D01*
D27*
X102775000Y-65275000D02*
X103100000Y-64950000D01*
X102775000Y-69000000D02*
X102775000Y-65275000D01*
D25*
X102775000Y-69000000D02*
X106000000Y-69000000D01*
X108000000Y-71000000D02*
X108000000Y-84000000D01*
X106000000Y-69000000D02*
X108000000Y-71000000D01*
D26*
X100300000Y-38999999D02*
X100300000Y-38450000D01*
X101212500Y-39912499D02*
X100300000Y-38999999D01*
D28*
X69174999Y-43495001D02*
X69150000Y-43520000D01*
X69174999Y-42909999D02*
X69174999Y-43495001D01*
X69400000Y-42684998D02*
X69174999Y-42909999D01*
X69400000Y-41820000D02*
X69400000Y-42684998D01*
X66650000Y-42934998D02*
X66650000Y-43520000D01*
X66900000Y-42684998D02*
X66650000Y-42934998D01*
X66900000Y-41820000D02*
X66900000Y-42684998D01*
X66900000Y-41820000D02*
X66900000Y-41100000D01*
X66900000Y-41100000D02*
X68900000Y-39100000D01*
X69400000Y-40113002D02*
X69300000Y-40013002D01*
X69400000Y-41820000D02*
X69400000Y-40113002D01*
X69300000Y-40013002D02*
X69300000Y-38700000D01*
X68900000Y-39100000D02*
X69300000Y-38700000D01*
X101212500Y-42712500D02*
X101212500Y-50212500D01*
X101212500Y-39912499D02*
X101212500Y-42712500D01*
D27*
X78900000Y-37900000D02*
X81800000Y-40800000D01*
X81800000Y-40800000D02*
X99300000Y-40800000D01*
X99300000Y-40800000D02*
X101212500Y-42712500D01*
X70201998Y-37900000D02*
X78900000Y-37900000D01*
X69401998Y-38700000D02*
X70201998Y-37900000D01*
X69300000Y-38700000D02*
X69401998Y-38700000D01*
%TO.N,GND*%
X100900000Y-64000000D02*
X98000000Y-64000000D01*
D25*
X102775000Y-72000000D02*
X105000000Y-72000000D01*
X101225000Y-69000000D02*
X98000000Y-69000000D01*
X106000000Y-61175000D02*
X106000000Y-58000000D01*
X83000000Y-47320000D02*
X83000000Y-43000000D01*
X101320000Y-36995000D02*
X100125000Y-35800000D01*
X101320000Y-38030000D02*
X101320000Y-36995000D01*
D29*
X92300000Y-36700000D02*
X94200000Y-38600000D01*
X92300000Y-35900000D02*
X92300000Y-36700000D01*
X96110000Y-38600000D02*
X96680000Y-38030000D01*
X94200000Y-38600000D02*
X96110000Y-38600000D01*
X102390000Y-39100000D02*
X101320000Y-38030000D01*
X103800000Y-39100000D02*
X102390000Y-39100000D01*
X103800000Y-37500000D02*
X105400000Y-35900000D01*
X103800000Y-39100000D02*
X103800000Y-37500000D01*
D28*
X70900000Y-39800000D02*
X70600000Y-39500000D01*
X70900000Y-41820000D02*
X70900000Y-39800000D01*
X70900000Y-42420000D02*
X70900000Y-41820000D01*
X70650000Y-42670000D02*
X70900000Y-42420000D01*
X70650000Y-43520000D02*
X70650000Y-42670000D01*
X70650000Y-44250000D02*
X72500000Y-46100000D01*
X70650000Y-43520000D02*
X70650000Y-44250000D01*
X65150000Y-44450000D02*
X63500000Y-46100000D01*
X65150000Y-43520000D02*
X65150000Y-44450000D01*
X65150000Y-42070000D02*
X65400000Y-41820000D01*
X65150000Y-43520000D02*
X65150000Y-42070000D01*
X65400000Y-39700000D02*
X65100000Y-39400000D01*
X65400000Y-41820000D02*
X65400000Y-39700000D01*
X100125000Y-35800000D02*
X97875000Y-35800000D01*
X97875000Y-36835000D02*
X96680000Y-38030000D01*
X97875000Y-35800000D02*
X97875000Y-36835000D01*
X97280000Y-38030000D02*
X97700000Y-38450000D01*
X96680000Y-38030000D02*
X97280000Y-38030000D01*
D25*
X83000000Y-47320000D02*
X83000000Y-52100000D01*
X68500000Y-86575000D02*
X68500000Y-89000000D01*
X76200000Y-84875000D02*
X76200000Y-87000000D01*
X64600000Y-75925000D02*
X64600000Y-78000000D01*
D27*
X73600000Y-79700000D02*
X71300000Y-79700000D01*
%TO.N,Net-(BMSLI-ION1-Pad1)*%
X100900000Y-63050000D02*
X100900000Y-59275000D01*
X100900000Y-59275000D02*
X101175000Y-59000000D01*
D25*
%TO.N,Net-(BUCK3.3-Pad5)*%
X76200000Y-77900000D02*
X76200000Y-78750000D01*
X72475000Y-74175000D02*
X76200000Y-77900000D01*
X72000000Y-74175000D02*
X72475000Y-74175000D01*
X68550000Y-74175000D02*
X68500000Y-74225000D01*
X72000000Y-74175000D02*
X68550000Y-74175000D01*
X68450000Y-74175000D02*
X68500000Y-74225000D01*
X64600000Y-74175000D02*
X68450000Y-74175000D01*
D27*
%TO.N,Net-(BUCK3.3-Pad3)*%
X73600000Y-80650000D02*
X73600000Y-83412500D01*
D25*
%TO.N,Vout*%
X68537500Y-84987500D02*
X68500000Y-85025000D01*
X73600000Y-84987500D02*
X68537500Y-84987500D01*
X68475000Y-85000000D02*
X68500000Y-85025000D01*
X55000000Y-85000000D02*
X68475000Y-85000000D01*
X68500000Y-75775000D02*
X68500000Y-85025000D01*
X71950000Y-75775000D02*
X72000000Y-75825000D01*
X68500000Y-75775000D02*
X71950000Y-75775000D01*
D27*
%TO.N,Net-(D1-Pad1)*%
X102825000Y-55037500D02*
X102787500Y-55000000D01*
X102825000Y-59000000D02*
X102825000Y-55037500D01*
D25*
%TO.N,Battery_Out*%
X96545000Y-76680000D02*
X101225000Y-72000000D01*
D26*
X87480000Y-76444002D02*
X87480000Y-76680000D01*
X98974002Y-64950000D02*
X87480000Y-76444002D01*
X100900000Y-64950000D02*
X98974002Y-64950000D01*
D25*
X87480000Y-76680000D02*
X96545000Y-76680000D01*
X83000000Y-76680000D02*
X87480000Y-76680000D01*
D30*
X83000000Y-100000000D02*
X81000000Y-102000000D01*
X83000000Y-76680000D02*
X83000000Y-100000000D01*
D25*
X83000000Y-76680000D02*
X83000000Y-77700000D01*
X80050000Y-80650000D02*
X76200000Y-80650000D01*
X83000000Y-77700000D02*
X80050000Y-80650000D01*
X76200000Y-80650000D02*
X76200000Y-83325000D01*
D27*
X74300000Y-78750000D02*
X76200000Y-80650000D01*
X73600000Y-78750000D02*
X74300000Y-78750000D01*
%TD*%
M02*
