%TF.GenerationSoftware,KiCad,Pcbnew,(5.1.9)-1*%
%TF.CreationDate,2021-08-17T00:54:57-04:00*%
%TF.ProjectId,cargador,63617267-6164-46f7-922e-6b696361645f,rev?*%
%TF.SameCoordinates,Original*%
%TF.FileFunction,Soldermask,Top*%
%TF.FilePolarity,Negative*%
%FSLAX46Y46*%
G04 Gerber Fmt 4.6, Leading zero omitted, Abs format (unit mm)*
G04 Created by KiCad (PCBNEW (5.1.9)-1) date 2021-08-17 00:54:57*
%MOMM*%
%LPD*%
G01*
G04 APERTURE LIST*
%ADD10C,4.000000*%
%ADD11R,0.300000X0.700000*%
%ADD12C,0.650000*%
%ADD13O,0.950000X0.650000*%
%ADD14O,0.800000X1.400000*%
%ADD15C,3.000000*%
%ADD16R,3.000000X3.000000*%
%ADD17R,1.150000X1.450000*%
%ADD18O,1.050000X1.900000*%
%ADD19R,1.750000X1.900000*%
%ADD20R,0.400000X1.400000*%
%ADD21O,1.700000X1.700000*%
%ADD22R,1.700000X1.700000*%
%ADD23R,1.100000X0.600000*%
%ADD24R,3.510000X2.540000*%
%ADD25R,1.060000X0.650000*%
G04 APERTURE END LIST*
D10*
%TO.C, *%
X54000000Y-38000000D03*
%TD*%
%TO.C,REF\u002A\u002A*%
X54000000Y-106000000D03*
%TD*%
%TO.C,REF\u002A\u002A*%
X112000000Y-106000000D03*
%TD*%
%TO.C,REF\u002A\u002A*%
X112000000Y-38000000D03*
%TD*%
D11*
%TO.C,J1*%
X70900000Y-41820000D03*
X70400000Y-41820000D03*
X69900000Y-41820000D03*
X69400000Y-41820000D03*
X68900000Y-41820000D03*
X68400000Y-41820000D03*
X67900000Y-41820000D03*
X67400000Y-41820000D03*
X66900000Y-41820000D03*
X66400000Y-41820000D03*
X65900000Y-41820000D03*
D12*
X71500000Y-42860000D03*
D13*
X64300000Y-42860000D03*
D14*
X72390000Y-35660000D03*
X63410000Y-35660000D03*
X63770000Y-41610000D03*
D11*
X65400000Y-41820000D03*
X65650000Y-43520000D03*
X67150000Y-43520000D03*
X66650000Y-43520000D03*
X66150000Y-43520000D03*
X65150000Y-43520000D03*
X67650000Y-43520000D03*
X68150000Y-43520000D03*
X68650000Y-43520000D03*
X69150000Y-43520000D03*
X69650000Y-43520000D03*
X70150000Y-43520000D03*
X70650000Y-43520000D03*
D14*
X72030000Y-41610000D03*
%TD*%
D15*
%TO.C,VBUS_Out1*%
X108000000Y-89080000D03*
D16*
X108000000Y-84000000D03*
%TD*%
D17*
%TO.C,USB_IN1*%
X101320000Y-38030000D03*
X96680000Y-38030000D03*
D18*
X95425000Y-35800000D03*
X102575000Y-35800000D03*
D19*
X100125000Y-35800000D03*
D20*
X99000000Y-38450000D03*
X98350000Y-38450000D03*
X97700000Y-38450000D03*
X100300000Y-38450000D03*
X99650000Y-38450000D03*
D19*
X97875000Y-35800000D03*
%TD*%
D21*
%TO.C,Out3v3*%
X55000000Y-87540000D03*
D22*
X55000000Y-85000000D03*
%TD*%
D15*
%TO.C,BattOut*%
X86080000Y-102000000D03*
D16*
X81000000Y-102000000D03*
%TD*%
%TO.C,R202*%
G36*
G01*
X101575000Y-58725000D02*
X101575000Y-59275000D01*
G75*
G02*
X101375000Y-59475000I-200000J0D01*
G01*
X100975000Y-59475000D01*
G75*
G02*
X100775000Y-59275000I0J200000D01*
G01*
X100775000Y-58725000D01*
G75*
G02*
X100975000Y-58525000I200000J0D01*
G01*
X101375000Y-58525000D01*
G75*
G02*
X101575000Y-58725000I0J-200000D01*
G01*
G37*
G36*
G01*
X103225000Y-58725000D02*
X103225000Y-59275000D01*
G75*
G02*
X103025000Y-59475000I-200000J0D01*
G01*
X102625000Y-59475000D01*
G75*
G02*
X102425000Y-59275000I0J200000D01*
G01*
X102425000Y-58725000D01*
G75*
G02*
X102625000Y-58525000I200000J0D01*
G01*
X103025000Y-58525000D01*
G75*
G02*
X103225000Y-58725000I0J-200000D01*
G01*
G37*
%TD*%
%TO.C,R201*%
G36*
G01*
X105725000Y-62425000D02*
X106275000Y-62425000D01*
G75*
G02*
X106475000Y-62625000I0J-200000D01*
G01*
X106475000Y-63025000D01*
G75*
G02*
X106275000Y-63225000I-200000J0D01*
G01*
X105725000Y-63225000D01*
G75*
G02*
X105525000Y-63025000I0J200000D01*
G01*
X105525000Y-62625000D01*
G75*
G02*
X105725000Y-62425000I200000J0D01*
G01*
G37*
G36*
G01*
X105725000Y-60775000D02*
X106275000Y-60775000D01*
G75*
G02*
X106475000Y-60975000I0J-200000D01*
G01*
X106475000Y-61375000D01*
G75*
G02*
X106275000Y-61575000I-200000J0D01*
G01*
X105725000Y-61575000D01*
G75*
G02*
X105525000Y-61375000I0J200000D01*
G01*
X105525000Y-60975000D01*
G75*
G02*
X105725000Y-60775000I200000J0D01*
G01*
G37*
%TD*%
%TO.C,R102*%
G36*
G01*
X64875000Y-74575000D02*
X64325000Y-74575000D01*
G75*
G02*
X64125000Y-74375000I0J200000D01*
G01*
X64125000Y-73975000D01*
G75*
G02*
X64325000Y-73775000I200000J0D01*
G01*
X64875000Y-73775000D01*
G75*
G02*
X65075000Y-73975000I0J-200000D01*
G01*
X65075000Y-74375000D01*
G75*
G02*
X64875000Y-74575000I-200000J0D01*
G01*
G37*
G36*
G01*
X64875000Y-76225000D02*
X64325000Y-76225000D01*
G75*
G02*
X64125000Y-76025000I0J200000D01*
G01*
X64125000Y-75625000D01*
G75*
G02*
X64325000Y-75425000I200000J0D01*
G01*
X64875000Y-75425000D01*
G75*
G02*
X65075000Y-75625000I0J-200000D01*
G01*
X65075000Y-76025000D01*
G75*
G02*
X64875000Y-76225000I-200000J0D01*
G01*
G37*
%TD*%
%TO.C,R101*%
G36*
G01*
X71725000Y-75425000D02*
X72275000Y-75425000D01*
G75*
G02*
X72475000Y-75625000I0J-200000D01*
G01*
X72475000Y-76025000D01*
G75*
G02*
X72275000Y-76225000I-200000J0D01*
G01*
X71725000Y-76225000D01*
G75*
G02*
X71525000Y-76025000I0J200000D01*
G01*
X71525000Y-75625000D01*
G75*
G02*
X71725000Y-75425000I200000J0D01*
G01*
G37*
G36*
G01*
X71725000Y-73775000D02*
X72275000Y-73775000D01*
G75*
G02*
X72475000Y-73975000I0J-200000D01*
G01*
X72475000Y-74375000D01*
G75*
G02*
X72275000Y-74575000I-200000J0D01*
G01*
X71725000Y-74575000D01*
G75*
G02*
X71525000Y-74375000I0J200000D01*
G01*
X71525000Y-73975000D01*
G75*
G02*
X71725000Y-73775000I200000J0D01*
G01*
G37*
%TD*%
%TO.C,L101*%
G36*
G01*
X73343750Y-84550000D02*
X73856250Y-84550000D01*
G75*
G02*
X74075000Y-84768750I0J-218750D01*
G01*
X74075000Y-85206250D01*
G75*
G02*
X73856250Y-85425000I-218750J0D01*
G01*
X73343750Y-85425000D01*
G75*
G02*
X73125000Y-85206250I0J218750D01*
G01*
X73125000Y-84768750D01*
G75*
G02*
X73343750Y-84550000I218750J0D01*
G01*
G37*
G36*
G01*
X73343750Y-82975000D02*
X73856250Y-82975000D01*
G75*
G02*
X74075000Y-83193750I0J-218750D01*
G01*
X74075000Y-83631250D01*
G75*
G02*
X73856250Y-83850000I-218750J0D01*
G01*
X73343750Y-83850000D01*
G75*
G02*
X73125000Y-83631250I0J218750D01*
G01*
X73125000Y-83193750D01*
G75*
G02*
X73343750Y-82975000I218750J0D01*
G01*
G37*
%TD*%
%TO.C,D1*%
G36*
G01*
X101650000Y-54743750D02*
X101650000Y-55256250D01*
G75*
G02*
X101431250Y-55475000I-218750J0D01*
G01*
X100993750Y-55475000D01*
G75*
G02*
X100775000Y-55256250I0J218750D01*
G01*
X100775000Y-54743750D01*
G75*
G02*
X100993750Y-54525000I218750J0D01*
G01*
X101431250Y-54525000D01*
G75*
G02*
X101650000Y-54743750I0J-218750D01*
G01*
G37*
G36*
G01*
X103225000Y-54743750D02*
X103225000Y-55256250D01*
G75*
G02*
X103006250Y-55475000I-218750J0D01*
G01*
X102568750Y-55475000D01*
G75*
G02*
X102350000Y-55256250I0J218750D01*
G01*
X102350000Y-54743750D01*
G75*
G02*
X102568750Y-54525000I218750J0D01*
G01*
X103006250Y-54525000D01*
G75*
G02*
X103225000Y-54743750I0J-218750D01*
G01*
G37*
%TD*%
%TO.C,C202*%
G36*
G01*
X102325000Y-72250000D02*
X102325000Y-71750000D01*
G75*
G02*
X102550000Y-71525000I225000J0D01*
G01*
X103000000Y-71525000D01*
G75*
G02*
X103225000Y-71750000I0J-225000D01*
G01*
X103225000Y-72250000D01*
G75*
G02*
X103000000Y-72475000I-225000J0D01*
G01*
X102550000Y-72475000D01*
G75*
G02*
X102325000Y-72250000I0J225000D01*
G01*
G37*
G36*
G01*
X100775000Y-72250000D02*
X100775000Y-71750000D01*
G75*
G02*
X101000000Y-71525000I225000J0D01*
G01*
X101450000Y-71525000D01*
G75*
G02*
X101675000Y-71750000I0J-225000D01*
G01*
X101675000Y-72250000D01*
G75*
G02*
X101450000Y-72475000I-225000J0D01*
G01*
X101000000Y-72475000D01*
G75*
G02*
X100775000Y-72250000I0J225000D01*
G01*
G37*
%TD*%
%TO.C,C201*%
G36*
G01*
X102325000Y-69250000D02*
X102325000Y-68750000D01*
G75*
G02*
X102550000Y-68525000I225000J0D01*
G01*
X103000000Y-68525000D01*
G75*
G02*
X103225000Y-68750000I0J-225000D01*
G01*
X103225000Y-69250000D01*
G75*
G02*
X103000000Y-69475000I-225000J0D01*
G01*
X102550000Y-69475000D01*
G75*
G02*
X102325000Y-69250000I0J225000D01*
G01*
G37*
G36*
G01*
X100775000Y-69250000D02*
X100775000Y-68750000D01*
G75*
G02*
X101000000Y-68525000I225000J0D01*
G01*
X101450000Y-68525000D01*
G75*
G02*
X101675000Y-68750000I0J-225000D01*
G01*
X101675000Y-69250000D01*
G75*
G02*
X101450000Y-69475000I-225000J0D01*
G01*
X101000000Y-69475000D01*
G75*
G02*
X100775000Y-69250000I0J225000D01*
G01*
G37*
%TD*%
%TO.C,C103*%
G36*
G01*
X68250000Y-86125000D02*
X68750000Y-86125000D01*
G75*
G02*
X68975000Y-86350000I0J-225000D01*
G01*
X68975000Y-86800000D01*
G75*
G02*
X68750000Y-87025000I-225000J0D01*
G01*
X68250000Y-87025000D01*
G75*
G02*
X68025000Y-86800000I0J225000D01*
G01*
X68025000Y-86350000D01*
G75*
G02*
X68250000Y-86125000I225000J0D01*
G01*
G37*
G36*
G01*
X68250000Y-84575000D02*
X68750000Y-84575000D01*
G75*
G02*
X68975000Y-84800000I0J-225000D01*
G01*
X68975000Y-85250000D01*
G75*
G02*
X68750000Y-85475000I-225000J0D01*
G01*
X68250000Y-85475000D01*
G75*
G02*
X68025000Y-85250000I0J225000D01*
G01*
X68025000Y-84800000D01*
G75*
G02*
X68250000Y-84575000I225000J0D01*
G01*
G37*
%TD*%
%TO.C,C102*%
G36*
G01*
X68250000Y-75325000D02*
X68750000Y-75325000D01*
G75*
G02*
X68975000Y-75550000I0J-225000D01*
G01*
X68975000Y-76000000D01*
G75*
G02*
X68750000Y-76225000I-225000J0D01*
G01*
X68250000Y-76225000D01*
G75*
G02*
X68025000Y-76000000I0J225000D01*
G01*
X68025000Y-75550000D01*
G75*
G02*
X68250000Y-75325000I225000J0D01*
G01*
G37*
G36*
G01*
X68250000Y-73775000D02*
X68750000Y-73775000D01*
G75*
G02*
X68975000Y-74000000I0J-225000D01*
G01*
X68975000Y-74450000D01*
G75*
G02*
X68750000Y-74675000I-225000J0D01*
G01*
X68250000Y-74675000D01*
G75*
G02*
X68025000Y-74450000I0J225000D01*
G01*
X68025000Y-74000000D01*
G75*
G02*
X68250000Y-73775000I225000J0D01*
G01*
G37*
%TD*%
%TO.C,C101*%
G36*
G01*
X76450000Y-83775000D02*
X75950000Y-83775000D01*
G75*
G02*
X75725000Y-83550000I0J225000D01*
G01*
X75725000Y-83100000D01*
G75*
G02*
X75950000Y-82875000I225000J0D01*
G01*
X76450000Y-82875000D01*
G75*
G02*
X76675000Y-83100000I0J-225000D01*
G01*
X76675000Y-83550000D01*
G75*
G02*
X76450000Y-83775000I-225000J0D01*
G01*
G37*
G36*
G01*
X76450000Y-85325000D02*
X75950000Y-85325000D01*
G75*
G02*
X75725000Y-85100000I0J225000D01*
G01*
X75725000Y-84650000D01*
G75*
G02*
X75950000Y-84425000I225000J0D01*
G01*
X76450000Y-84425000D01*
G75*
G02*
X76675000Y-84650000I0J-225000D01*
G01*
X76675000Y-85100000D01*
G75*
G02*
X76450000Y-85325000I-225000J0D01*
G01*
G37*
%TD*%
D23*
%TO.C,BUCK3.3*%
X76200000Y-78750000D03*
X76200000Y-80650000D03*
X73600000Y-80650000D03*
X73600000Y-79700000D03*
X73600000Y-78750000D03*
%TD*%
D24*
%TO.C,BT1*%
X83000000Y-47320000D03*
X83000000Y-76680000D03*
%TD*%
D25*
%TO.C,BMSLI-ION1*%
X103100000Y-63050000D03*
X103100000Y-64950000D03*
X100900000Y-64950000D03*
X100900000Y-64000000D03*
X100900000Y-63050000D03*
%TD*%
M02*
