%TF.GenerationSoftware,KiCad,Pcbnew,(5.1.9)-1*%
%TF.CreationDate,2021-08-17T00:54:57-04:00*%
%TF.ProjectId,cargador,63617267-6164-46f7-922e-6b696361645f,rev?*%
%TF.SameCoordinates,Original*%
%TF.FileFunction,Legend,Top*%
%TF.FilePolarity,Positive*%
%FSLAX46Y46*%
G04 Gerber Fmt 4.6, Leading zero omitted, Abs format (unit mm)*
G04 Created by KiCad (PCBNEW (5.1.9)-1) date 2021-08-17 00:54:57*
%MOMM*%
%LPD*%
G01*
G04 APERTURE LIST*
%ADD10C,0.150000*%
%ADD11C,0.120000*%
%ADD12C,0.200000*%
%ADD13C,0.254000*%
G04 APERTURE END LIST*
D10*
X99750000Y-91535714D02*
X99678571Y-91678571D01*
X99678571Y-91892857D01*
X99750000Y-92107142D01*
X99892857Y-92250000D01*
X100035714Y-92321428D01*
X100321428Y-92392857D01*
X100535714Y-92392857D01*
X100821428Y-92321428D01*
X100964285Y-92250000D01*
X101107142Y-92107142D01*
X101178571Y-91892857D01*
X101178571Y-91750000D01*
X101107142Y-91535714D01*
X101035714Y-91464285D01*
X100535714Y-91464285D01*
X100535714Y-91750000D01*
X101178571Y-90821428D02*
X99678571Y-90821428D01*
X101178571Y-89964285D01*
X99678571Y-89964285D01*
X101178571Y-89250000D02*
X99678571Y-89250000D01*
X99678571Y-88892857D01*
X99750000Y-88678571D01*
X99892857Y-88535714D01*
X100035714Y-88464285D01*
X100321428Y-88392857D01*
X100535714Y-88392857D01*
X100821428Y-88464285D01*
X100964285Y-88535714D01*
X101107142Y-88678571D01*
X101178571Y-88892857D01*
X101178571Y-89250000D01*
X99607142Y-86678571D02*
X101535714Y-87964285D01*
X99678571Y-86392857D02*
X101178571Y-85892857D01*
X99678571Y-85392857D01*
X101178571Y-84892857D02*
X99678571Y-84892857D01*
X100250000Y-84892857D02*
X100178571Y-84750000D01*
X100178571Y-84464285D01*
X100250000Y-84321428D01*
X100321428Y-84250000D01*
X100464285Y-84178571D01*
X100892857Y-84178571D01*
X101035714Y-84250000D01*
X101107142Y-84321428D01*
X101178571Y-84464285D01*
X101178571Y-84750000D01*
X101107142Y-84892857D01*
X100178571Y-82892857D02*
X101178571Y-82892857D01*
X100178571Y-83535714D02*
X100964285Y-83535714D01*
X101107142Y-83464285D01*
X101178571Y-83321428D01*
X101178571Y-83107142D01*
X101107142Y-82964285D01*
X101035714Y-82892857D01*
X101107142Y-82250000D02*
X101178571Y-82107142D01*
X101178571Y-81821428D01*
X101107142Y-81678571D01*
X100964285Y-81607142D01*
X100892857Y-81607142D01*
X100750000Y-81678571D01*
X100678571Y-81821428D01*
X100678571Y-82035714D01*
X100607142Y-82178571D01*
X100464285Y-82250000D01*
X100392857Y-82250000D01*
X100250000Y-82178571D01*
X100178571Y-82035714D01*
X100178571Y-81821428D01*
X100250000Y-81678571D01*
X60047619Y-83119047D02*
X60047619Y-83309523D01*
X60000000Y-83404761D01*
X59904761Y-83500000D01*
X59714285Y-83547619D01*
X59380952Y-83547619D01*
X59190476Y-83500000D01*
X59095238Y-83404761D01*
X59047619Y-83309523D01*
X59047619Y-83119047D01*
X59095238Y-83023809D01*
X59190476Y-82928571D01*
X59380952Y-82880952D01*
X59714285Y-82880952D01*
X59904761Y-82928571D01*
X60000000Y-83023809D01*
X60047619Y-83119047D01*
X59714285Y-84404761D02*
X59047619Y-84404761D01*
X59714285Y-83976190D02*
X59190476Y-83976190D01*
X59095238Y-84023809D01*
X59047619Y-84119047D01*
X59047619Y-84261904D01*
X59095238Y-84357142D01*
X59142857Y-84404761D01*
X59714285Y-84738095D02*
X59714285Y-85119047D01*
X60047619Y-84880952D02*
X59190476Y-84880952D01*
X59095238Y-84928571D01*
X59047619Y-85023809D01*
X59047619Y-85119047D01*
X60095238Y-86166666D02*
X58809523Y-85309523D01*
X60000000Y-87023809D02*
X60047619Y-86928571D01*
X60047619Y-86785714D01*
X60000000Y-86642857D01*
X59904761Y-86547619D01*
X59809523Y-86500000D01*
X59619047Y-86452380D01*
X59476190Y-86452380D01*
X59285714Y-86500000D01*
X59190476Y-86547619D01*
X59095238Y-86642857D01*
X59047619Y-86785714D01*
X59047619Y-86880952D01*
X59095238Y-87023809D01*
X59142857Y-87071428D01*
X59476190Y-87071428D01*
X59476190Y-86880952D01*
X59047619Y-87500000D02*
X60047619Y-87500000D01*
X59047619Y-88071428D01*
X60047619Y-88071428D01*
X59047619Y-88547619D02*
X60047619Y-88547619D01*
X60047619Y-88785714D01*
X60000000Y-88928571D01*
X59904761Y-89023809D01*
X59809523Y-89071428D01*
X59619047Y-89119047D01*
X59476190Y-89119047D01*
X59285714Y-89071428D01*
X59190476Y-89023809D01*
X59095238Y-88928571D01*
X59047619Y-88785714D01*
X59047619Y-88547619D01*
X80619047Y-93952380D02*
X80809523Y-93952380D01*
X80904761Y-94000000D01*
X81000000Y-94095238D01*
X81047619Y-94285714D01*
X81047619Y-94619047D01*
X81000000Y-94809523D01*
X80904761Y-94904761D01*
X80809523Y-94952380D01*
X80619047Y-94952380D01*
X80523809Y-94904761D01*
X80428571Y-94809523D01*
X80380952Y-94619047D01*
X80380952Y-94285714D01*
X80428571Y-94095238D01*
X80523809Y-94000000D01*
X80619047Y-93952380D01*
X81904761Y-94285714D02*
X81904761Y-94952380D01*
X81476190Y-94285714D02*
X81476190Y-94809523D01*
X81523809Y-94904761D01*
X81619047Y-94952380D01*
X81761904Y-94952380D01*
X81857142Y-94904761D01*
X81904761Y-94857142D01*
X82238095Y-94285714D02*
X82619047Y-94285714D01*
X82380952Y-93952380D02*
X82380952Y-94809523D01*
X82428571Y-94904761D01*
X82523809Y-94952380D01*
X82619047Y-94952380D01*
X83666666Y-93904761D02*
X82809523Y-95190476D01*
X84523809Y-94000000D02*
X84428571Y-93952380D01*
X84285714Y-93952380D01*
X84142857Y-94000000D01*
X84047619Y-94095238D01*
X84000000Y-94190476D01*
X83952380Y-94380952D01*
X83952380Y-94523809D01*
X84000000Y-94714285D01*
X84047619Y-94809523D01*
X84142857Y-94904761D01*
X84285714Y-94952380D01*
X84380952Y-94952380D01*
X84523809Y-94904761D01*
X84571428Y-94857142D01*
X84571428Y-94523809D01*
X84380952Y-94523809D01*
X85000000Y-94952380D02*
X85000000Y-93952380D01*
X85571428Y-94952380D01*
X85571428Y-93952380D01*
X86047619Y-94952380D02*
X86047619Y-93952380D01*
X86285714Y-93952380D01*
X86428571Y-94000000D01*
X86523809Y-94095238D01*
X86571428Y-94190476D01*
X86619047Y-94380952D01*
X86619047Y-94523809D01*
X86571428Y-94714285D01*
X86523809Y-94809523D01*
X86428571Y-94904761D01*
X86285714Y-94952380D01*
X86047619Y-94952380D01*
D11*
%TO.C,J1*%
X72650000Y-43870000D02*
X71150000Y-43870000D01*
X72650000Y-43870000D02*
X72650000Y-36610000D01*
X63150000Y-43870000D02*
X63150000Y-36610000D01*
X64650000Y-43870000D02*
X63150000Y-43870000D01*
%TO.C,VBUS_Out1*%
X104190000Y-81460000D02*
X104190000Y-91620000D01*
X111810000Y-81460000D02*
X104190000Y-81460000D01*
X111810000Y-91620000D02*
X111810000Y-81460000D01*
X104190000Y-91620000D02*
X111810000Y-91620000D01*
X105460000Y-91620000D02*
X105460000Y-81460000D01*
%TO.C,USB_IN1*%
X100760000Y-39410000D02*
X100760000Y-39020000D01*
X100760000Y-39410000D02*
X100310000Y-39410000D01*
X95190000Y-38710000D02*
X95840000Y-38710000D01*
X95190000Y-36980000D02*
X95190000Y-38710000D01*
X102810000Y-34410000D02*
X102810000Y-34620000D01*
X95190000Y-34410000D02*
X95190000Y-34620000D01*
X102810000Y-36980000D02*
X102810000Y-38710000D01*
X102810000Y-38710000D02*
X102150000Y-38710000D01*
%TO.C,Out3v3*%
X53670000Y-83670000D02*
X55000000Y-83670000D01*
X53670000Y-85000000D02*
X53670000Y-83670000D01*
X53670000Y-86270000D02*
X56330000Y-86270000D01*
X56330000Y-86270000D02*
X56330000Y-88870000D01*
X53670000Y-86270000D02*
X53670000Y-88870000D01*
X53670000Y-88870000D02*
X56330000Y-88870000D01*
%TO.C,BattOut*%
X78460000Y-105810000D02*
X88620000Y-105810000D01*
X78460000Y-98190000D02*
X78460000Y-105810000D01*
X88620000Y-98190000D02*
X78460000Y-98190000D01*
X88620000Y-105810000D02*
X88620000Y-98190000D01*
X88620000Y-104540000D02*
X78460000Y-104540000D01*
%TO.C,R202*%
X102237258Y-59522500D02*
X101762742Y-59522500D01*
X102237258Y-58477500D02*
X101762742Y-58477500D01*
%TO.C,R201*%
X106522500Y-61762742D02*
X106522500Y-62237258D01*
X105477500Y-61762742D02*
X105477500Y-62237258D01*
%TO.C,R102*%
X64077500Y-75237258D02*
X64077500Y-74762742D01*
X65122500Y-75237258D02*
X65122500Y-74762742D01*
%TO.C,R101*%
X72522500Y-74762742D02*
X72522500Y-75237258D01*
X71477500Y-74762742D02*
X71477500Y-75237258D01*
%TO.C,L101*%
X74110000Y-84037221D02*
X74110000Y-84362779D01*
X73090000Y-84037221D02*
X73090000Y-84362779D01*
%TO.C,D1*%
X101200000Y-55735000D02*
X103485000Y-55735000D01*
X103485000Y-55735000D02*
X103485000Y-54265000D01*
X103485000Y-54265000D02*
X101200000Y-54265000D01*
%TO.C,C202*%
X101859420Y-71490000D02*
X102140580Y-71490000D01*
X101859420Y-72510000D02*
X102140580Y-72510000D01*
%TO.C,C201*%
X101859420Y-68490000D02*
X102140580Y-68490000D01*
X101859420Y-69510000D02*
X102140580Y-69510000D01*
%TO.C,C103*%
X69010000Y-85659420D02*
X69010000Y-85940580D01*
X67990000Y-85659420D02*
X67990000Y-85940580D01*
%TO.C,C102*%
X69010000Y-74859420D02*
X69010000Y-75140580D01*
X67990000Y-74859420D02*
X67990000Y-75140580D01*
%TO.C,C101*%
X75690000Y-84240580D02*
X75690000Y-83959420D01*
X76710000Y-84240580D02*
X76710000Y-83959420D01*
D12*
%TO.C,BUCK3.3*%
X74500000Y-78250000D02*
X75300000Y-78250000D01*
X75300000Y-78250000D02*
X75300000Y-81150000D01*
X75300000Y-81150000D02*
X74500000Y-81150000D01*
X74500000Y-81150000D02*
X74500000Y-78250000D01*
X73050000Y-78200000D02*
X74150000Y-78200000D01*
D11*
%TO.C,BT1*%
X84900000Y-76310000D02*
X86610000Y-76310000D01*
X86610000Y-72692000D02*
X86610000Y-76310000D01*
X91110000Y-65860000D02*
X91110000Y-69847300D01*
X88910000Y-63660000D02*
X91110000Y-65860000D01*
X88910000Y-60340000D02*
X88910000Y-63660000D01*
X88910000Y-60340000D02*
X91110000Y-58140000D01*
X91110000Y-54152700D02*
X91110000Y-58140000D01*
X84900000Y-47690000D02*
X86610000Y-47690000D01*
X86610000Y-47690000D02*
X86610000Y-51308000D01*
X79390000Y-51308000D02*
X79390000Y-47690000D01*
X81100000Y-47690000D02*
X79390000Y-47690000D01*
X74890000Y-69847300D02*
X74890000Y-54152700D01*
X81100000Y-76310000D02*
X79390000Y-76310000D01*
X79390000Y-76310000D02*
X79390000Y-72692000D01*
X74888211Y-69845370D02*
G75*
G03*
X79390000Y-72692000I8111789J7845370D01*
G01*
X91111789Y-54154630D02*
G75*
G03*
X86610000Y-51308000I-8111789J-7845370D01*
G01*
X74888211Y-54154630D02*
G75*
G02*
X79390000Y-51308000I8111789J-7845370D01*
G01*
X91111789Y-69845370D02*
G75*
G02*
X86610000Y-72692000I-8111789J7845370D01*
G01*
%TO.C,BMSLI-ION1*%
X101100000Y-65610000D02*
X102900000Y-65610000D01*
X102900000Y-62390000D02*
X100450000Y-62390000D01*
%TO.C,J1*%
D10*
X67566666Y-44312380D02*
X67566666Y-45026666D01*
X67519047Y-45169523D01*
X67423809Y-45264761D01*
X67280952Y-45312380D01*
X67185714Y-45312380D01*
X68566666Y-45312380D02*
X67995238Y-45312380D01*
X68280952Y-45312380D02*
X68280952Y-44312380D01*
X68185714Y-44455238D01*
X68090476Y-44550476D01*
X67995238Y-44598095D01*
%TO.C,VBUS_Out1*%
X113452380Y-90492380D02*
X114452380Y-90159047D01*
X113452380Y-89825714D01*
X113928571Y-89159047D02*
X113976190Y-89016190D01*
X114023809Y-88968571D01*
X114119047Y-88920952D01*
X114261904Y-88920952D01*
X114357142Y-88968571D01*
X114404761Y-89016190D01*
X114452380Y-89111428D01*
X114452380Y-89492380D01*
X113452380Y-89492380D01*
X113452380Y-89159047D01*
X113500000Y-89063809D01*
X113547619Y-89016190D01*
X113642857Y-88968571D01*
X113738095Y-88968571D01*
X113833333Y-89016190D01*
X113880952Y-89063809D01*
X113928571Y-89159047D01*
X113928571Y-89492380D01*
X113452380Y-88492380D02*
X114261904Y-88492380D01*
X114357142Y-88444761D01*
X114404761Y-88397142D01*
X114452380Y-88301904D01*
X114452380Y-88111428D01*
X114404761Y-88016190D01*
X114357142Y-87968571D01*
X114261904Y-87920952D01*
X113452380Y-87920952D01*
X114404761Y-87492380D02*
X114452380Y-87349523D01*
X114452380Y-87111428D01*
X114404761Y-87016190D01*
X114357142Y-86968571D01*
X114261904Y-86920952D01*
X114166666Y-86920952D01*
X114071428Y-86968571D01*
X114023809Y-87016190D01*
X113976190Y-87111428D01*
X113928571Y-87301904D01*
X113880952Y-87397142D01*
X113833333Y-87444761D01*
X113738095Y-87492380D01*
X113642857Y-87492380D01*
X113547619Y-87444761D01*
X113500000Y-87397142D01*
X113452380Y-87301904D01*
X113452380Y-87063809D01*
X113500000Y-86920952D01*
X114547619Y-86730476D02*
X114547619Y-85968571D01*
X113452380Y-85540000D02*
X113452380Y-85349523D01*
X113500000Y-85254285D01*
X113595238Y-85159047D01*
X113785714Y-85111428D01*
X114119047Y-85111428D01*
X114309523Y-85159047D01*
X114404761Y-85254285D01*
X114452380Y-85349523D01*
X114452380Y-85540000D01*
X114404761Y-85635238D01*
X114309523Y-85730476D01*
X114119047Y-85778095D01*
X113785714Y-85778095D01*
X113595238Y-85730476D01*
X113500000Y-85635238D01*
X113452380Y-85540000D01*
X113785714Y-84254285D02*
X114452380Y-84254285D01*
X113785714Y-84682857D02*
X114309523Y-84682857D01*
X114404761Y-84635238D01*
X114452380Y-84540000D01*
X114452380Y-84397142D01*
X114404761Y-84301904D01*
X114357142Y-84254285D01*
X113785714Y-83920952D02*
X113785714Y-83540000D01*
X113452380Y-83778095D02*
X114309523Y-83778095D01*
X114404761Y-83730476D01*
X114452380Y-83635238D01*
X114452380Y-83540000D01*
X114452380Y-82682857D02*
X114452380Y-83254285D01*
X114452380Y-82968571D02*
X113452380Y-82968571D01*
X113595238Y-83063809D01*
X113690476Y-83159047D01*
X113738095Y-83254285D01*
%TO.C,USB_IN1*%
X96119047Y-39752380D02*
X96119047Y-40561904D01*
X96166666Y-40657142D01*
X96214285Y-40704761D01*
X96309523Y-40752380D01*
X96500000Y-40752380D01*
X96595238Y-40704761D01*
X96642857Y-40657142D01*
X96690476Y-40561904D01*
X96690476Y-39752380D01*
X97119047Y-40704761D02*
X97261904Y-40752380D01*
X97500000Y-40752380D01*
X97595238Y-40704761D01*
X97642857Y-40657142D01*
X97690476Y-40561904D01*
X97690476Y-40466666D01*
X97642857Y-40371428D01*
X97595238Y-40323809D01*
X97500000Y-40276190D01*
X97309523Y-40228571D01*
X97214285Y-40180952D01*
X97166666Y-40133333D01*
X97119047Y-40038095D01*
X97119047Y-39942857D01*
X97166666Y-39847619D01*
X97214285Y-39800000D01*
X97309523Y-39752380D01*
X97547619Y-39752380D01*
X97690476Y-39800000D01*
X98452380Y-40228571D02*
X98595238Y-40276190D01*
X98642857Y-40323809D01*
X98690476Y-40419047D01*
X98690476Y-40561904D01*
X98642857Y-40657142D01*
X98595238Y-40704761D01*
X98500000Y-40752380D01*
X98119047Y-40752380D01*
X98119047Y-39752380D01*
X98452380Y-39752380D01*
X98547619Y-39800000D01*
X98595238Y-39847619D01*
X98642857Y-39942857D01*
X98642857Y-40038095D01*
X98595238Y-40133333D01*
X98547619Y-40180952D01*
X98452380Y-40228571D01*
X98119047Y-40228571D01*
X98880952Y-40847619D02*
X99642857Y-40847619D01*
X99880952Y-40752380D02*
X99880952Y-39752380D01*
X100357142Y-40752380D02*
X100357142Y-39752380D01*
X100928571Y-40752380D01*
X100928571Y-39752380D01*
X101928571Y-40752380D02*
X101357142Y-40752380D01*
X101642857Y-40752380D02*
X101642857Y-39752380D01*
X101547619Y-39895238D01*
X101452380Y-39990476D01*
X101357142Y-40038095D01*
%TO.C,Out3v3*%
X52047619Y-84333333D02*
X52047619Y-84523809D01*
X52000000Y-84619047D01*
X51904761Y-84714285D01*
X51714285Y-84761904D01*
X51380952Y-84761904D01*
X51190476Y-84714285D01*
X51095238Y-84619047D01*
X51047619Y-84523809D01*
X51047619Y-84333333D01*
X51095238Y-84238095D01*
X51190476Y-84142857D01*
X51380952Y-84095238D01*
X51714285Y-84095238D01*
X51904761Y-84142857D01*
X52000000Y-84238095D01*
X52047619Y-84333333D01*
X51714285Y-85619047D02*
X51047619Y-85619047D01*
X51714285Y-85190476D02*
X51190476Y-85190476D01*
X51095238Y-85238095D01*
X51047619Y-85333333D01*
X51047619Y-85476190D01*
X51095238Y-85571428D01*
X51142857Y-85619047D01*
X51714285Y-85952380D02*
X51714285Y-86333333D01*
X52047619Y-86095238D02*
X51190476Y-86095238D01*
X51095238Y-86142857D01*
X51047619Y-86238095D01*
X51047619Y-86333333D01*
X52047619Y-86571428D02*
X52047619Y-87190476D01*
X51666666Y-86857142D01*
X51666666Y-87000000D01*
X51619047Y-87095238D01*
X51571428Y-87142857D01*
X51476190Y-87190476D01*
X51238095Y-87190476D01*
X51142857Y-87142857D01*
X51095238Y-87095238D01*
X51047619Y-87000000D01*
X51047619Y-86714285D01*
X51095238Y-86619047D01*
X51142857Y-86571428D01*
X51714285Y-87523809D02*
X51047619Y-87761904D01*
X51714285Y-88000000D01*
X52047619Y-88285714D02*
X52047619Y-88904761D01*
X51666666Y-88571428D01*
X51666666Y-88714285D01*
X51619047Y-88809523D01*
X51571428Y-88857142D01*
X51476190Y-88904761D01*
X51238095Y-88904761D01*
X51142857Y-88857142D01*
X51095238Y-88809523D01*
X51047619Y-88714285D01*
X51047619Y-88428571D01*
X51095238Y-88333333D01*
X51142857Y-88285714D01*
%TO.C,BattOut*%
X81285714Y-107428571D02*
X81428571Y-107476190D01*
X81476190Y-107523809D01*
X81523809Y-107619047D01*
X81523809Y-107761904D01*
X81476190Y-107857142D01*
X81428571Y-107904761D01*
X81333333Y-107952380D01*
X80952380Y-107952380D01*
X80952380Y-106952380D01*
X81285714Y-106952380D01*
X81380952Y-107000000D01*
X81428571Y-107047619D01*
X81476190Y-107142857D01*
X81476190Y-107238095D01*
X81428571Y-107333333D01*
X81380952Y-107380952D01*
X81285714Y-107428571D01*
X80952380Y-107428571D01*
X82380952Y-107952380D02*
X82380952Y-107428571D01*
X82333333Y-107333333D01*
X82238095Y-107285714D01*
X82047619Y-107285714D01*
X81952380Y-107333333D01*
X82380952Y-107904761D02*
X82285714Y-107952380D01*
X82047619Y-107952380D01*
X81952380Y-107904761D01*
X81904761Y-107809523D01*
X81904761Y-107714285D01*
X81952380Y-107619047D01*
X82047619Y-107571428D01*
X82285714Y-107571428D01*
X82380952Y-107523809D01*
X82714285Y-107285714D02*
X83095238Y-107285714D01*
X82857142Y-106952380D02*
X82857142Y-107809523D01*
X82904761Y-107904761D01*
X83000000Y-107952380D01*
X83095238Y-107952380D01*
X83285714Y-107285714D02*
X83666666Y-107285714D01*
X83428571Y-106952380D02*
X83428571Y-107809523D01*
X83476190Y-107904761D01*
X83571428Y-107952380D01*
X83666666Y-107952380D01*
X84190476Y-106952380D02*
X84380952Y-106952380D01*
X84476190Y-107000000D01*
X84571428Y-107095238D01*
X84619047Y-107285714D01*
X84619047Y-107619047D01*
X84571428Y-107809523D01*
X84476190Y-107904761D01*
X84380952Y-107952380D01*
X84190476Y-107952380D01*
X84095238Y-107904761D01*
X84000000Y-107809523D01*
X83952380Y-107619047D01*
X83952380Y-107285714D01*
X84000000Y-107095238D01*
X84095238Y-107000000D01*
X84190476Y-106952380D01*
X85476190Y-107285714D02*
X85476190Y-107952380D01*
X85047619Y-107285714D02*
X85047619Y-107809523D01*
X85095238Y-107904761D01*
X85190476Y-107952380D01*
X85333333Y-107952380D01*
X85428571Y-107904761D01*
X85476190Y-107857142D01*
X85809523Y-107285714D02*
X86190476Y-107285714D01*
X85952380Y-106952380D02*
X85952380Y-107809523D01*
X86000000Y-107904761D01*
X86095238Y-107952380D01*
X86190476Y-107952380D01*
%TO.C,R202*%
X100880952Y-60882380D02*
X100547619Y-60406190D01*
X100309523Y-60882380D02*
X100309523Y-59882380D01*
X100690476Y-59882380D01*
X100785714Y-59930000D01*
X100833333Y-59977619D01*
X100880952Y-60072857D01*
X100880952Y-60215714D01*
X100833333Y-60310952D01*
X100785714Y-60358571D01*
X100690476Y-60406190D01*
X100309523Y-60406190D01*
X101261904Y-59977619D02*
X101309523Y-59930000D01*
X101404761Y-59882380D01*
X101642857Y-59882380D01*
X101738095Y-59930000D01*
X101785714Y-59977619D01*
X101833333Y-60072857D01*
X101833333Y-60168095D01*
X101785714Y-60310952D01*
X101214285Y-60882380D01*
X101833333Y-60882380D01*
X102452380Y-59882380D02*
X102547619Y-59882380D01*
X102642857Y-59930000D01*
X102690476Y-59977619D01*
X102738095Y-60072857D01*
X102785714Y-60263333D01*
X102785714Y-60501428D01*
X102738095Y-60691904D01*
X102690476Y-60787142D01*
X102642857Y-60834761D01*
X102547619Y-60882380D01*
X102452380Y-60882380D01*
X102357142Y-60834761D01*
X102309523Y-60787142D01*
X102261904Y-60691904D01*
X102214285Y-60501428D01*
X102214285Y-60263333D01*
X102261904Y-60072857D01*
X102309523Y-59977619D01*
X102357142Y-59930000D01*
X102452380Y-59882380D01*
X103166666Y-59977619D02*
X103214285Y-59930000D01*
X103309523Y-59882380D01*
X103547619Y-59882380D01*
X103642857Y-59930000D01*
X103690476Y-59977619D01*
X103738095Y-60072857D01*
X103738095Y-60168095D01*
X103690476Y-60310952D01*
X103119047Y-60882380D01*
X103738095Y-60882380D01*
%TO.C,R201*%
X107882380Y-63119047D02*
X107406190Y-63452380D01*
X107882380Y-63690476D02*
X106882380Y-63690476D01*
X106882380Y-63309523D01*
X106930000Y-63214285D01*
X106977619Y-63166666D01*
X107072857Y-63119047D01*
X107215714Y-63119047D01*
X107310952Y-63166666D01*
X107358571Y-63214285D01*
X107406190Y-63309523D01*
X107406190Y-63690476D01*
X106977619Y-62738095D02*
X106930000Y-62690476D01*
X106882380Y-62595238D01*
X106882380Y-62357142D01*
X106930000Y-62261904D01*
X106977619Y-62214285D01*
X107072857Y-62166666D01*
X107168095Y-62166666D01*
X107310952Y-62214285D01*
X107882380Y-62785714D01*
X107882380Y-62166666D01*
X106882380Y-61547619D02*
X106882380Y-61452380D01*
X106930000Y-61357142D01*
X106977619Y-61309523D01*
X107072857Y-61261904D01*
X107263333Y-61214285D01*
X107501428Y-61214285D01*
X107691904Y-61261904D01*
X107787142Y-61309523D01*
X107834761Y-61357142D01*
X107882380Y-61452380D01*
X107882380Y-61547619D01*
X107834761Y-61642857D01*
X107787142Y-61690476D01*
X107691904Y-61738095D01*
X107501428Y-61785714D01*
X107263333Y-61785714D01*
X107072857Y-61738095D01*
X106977619Y-61690476D01*
X106930000Y-61642857D01*
X106882380Y-61547619D01*
X107882380Y-60261904D02*
X107882380Y-60833333D01*
X107882380Y-60547619D02*
X106882380Y-60547619D01*
X107025238Y-60642857D01*
X107120476Y-60738095D01*
X107168095Y-60833333D01*
%TO.C,R102*%
X63622380Y-76119047D02*
X63146190Y-76452380D01*
X63622380Y-76690476D02*
X62622380Y-76690476D01*
X62622380Y-76309523D01*
X62670000Y-76214285D01*
X62717619Y-76166666D01*
X62812857Y-76119047D01*
X62955714Y-76119047D01*
X63050952Y-76166666D01*
X63098571Y-76214285D01*
X63146190Y-76309523D01*
X63146190Y-76690476D01*
X63622380Y-75166666D02*
X63622380Y-75738095D01*
X63622380Y-75452380D02*
X62622380Y-75452380D01*
X62765238Y-75547619D01*
X62860476Y-75642857D01*
X62908095Y-75738095D01*
X62622380Y-74547619D02*
X62622380Y-74452380D01*
X62670000Y-74357142D01*
X62717619Y-74309523D01*
X62812857Y-74261904D01*
X63003333Y-74214285D01*
X63241428Y-74214285D01*
X63431904Y-74261904D01*
X63527142Y-74309523D01*
X63574761Y-74357142D01*
X63622380Y-74452380D01*
X63622380Y-74547619D01*
X63574761Y-74642857D01*
X63527142Y-74690476D01*
X63431904Y-74738095D01*
X63241428Y-74785714D01*
X63003333Y-74785714D01*
X62812857Y-74738095D01*
X62717619Y-74690476D01*
X62670000Y-74642857D01*
X62622380Y-74547619D01*
X62717619Y-73833333D02*
X62670000Y-73785714D01*
X62622380Y-73690476D01*
X62622380Y-73452380D01*
X62670000Y-73357142D01*
X62717619Y-73309523D01*
X62812857Y-73261904D01*
X62908095Y-73261904D01*
X63050952Y-73309523D01*
X63622380Y-73880952D01*
X63622380Y-73261904D01*
%TO.C,R101*%
X73882380Y-76119047D02*
X73406190Y-76452380D01*
X73882380Y-76690476D02*
X72882380Y-76690476D01*
X72882380Y-76309523D01*
X72930000Y-76214285D01*
X72977619Y-76166666D01*
X73072857Y-76119047D01*
X73215714Y-76119047D01*
X73310952Y-76166666D01*
X73358571Y-76214285D01*
X73406190Y-76309523D01*
X73406190Y-76690476D01*
X73882380Y-75166666D02*
X73882380Y-75738095D01*
X73882380Y-75452380D02*
X72882380Y-75452380D01*
X73025238Y-75547619D01*
X73120476Y-75642857D01*
X73168095Y-75738095D01*
X72882380Y-74547619D02*
X72882380Y-74452380D01*
X72930000Y-74357142D01*
X72977619Y-74309523D01*
X73072857Y-74261904D01*
X73263333Y-74214285D01*
X73501428Y-74214285D01*
X73691904Y-74261904D01*
X73787142Y-74309523D01*
X73834761Y-74357142D01*
X73882380Y-74452380D01*
X73882380Y-74547619D01*
X73834761Y-74642857D01*
X73787142Y-74690476D01*
X73691904Y-74738095D01*
X73501428Y-74785714D01*
X73263333Y-74785714D01*
X73072857Y-74738095D01*
X72977619Y-74690476D01*
X72930000Y-74642857D01*
X72882380Y-74547619D01*
X73882380Y-73261904D02*
X73882380Y-73833333D01*
X73882380Y-73547619D02*
X72882380Y-73547619D01*
X73025238Y-73642857D01*
X73120476Y-73738095D01*
X73168095Y-73833333D01*
%TO.C,L101*%
X75482380Y-85319047D02*
X75482380Y-85795238D01*
X74482380Y-85795238D01*
X75482380Y-84461904D02*
X75482380Y-85033333D01*
X75482380Y-84747619D02*
X74482380Y-84747619D01*
X74625238Y-84842857D01*
X74720476Y-84938095D01*
X74768095Y-85033333D01*
X74482380Y-83842857D02*
X74482380Y-83747619D01*
X74530000Y-83652380D01*
X74577619Y-83604761D01*
X74672857Y-83557142D01*
X74863333Y-83509523D01*
X75101428Y-83509523D01*
X75291904Y-83557142D01*
X75387142Y-83604761D01*
X75434761Y-83652380D01*
X75482380Y-83747619D01*
X75482380Y-83842857D01*
X75434761Y-83938095D01*
X75387142Y-83985714D01*
X75291904Y-84033333D01*
X75101428Y-84080952D01*
X74863333Y-84080952D01*
X74672857Y-84033333D01*
X74577619Y-83985714D01*
X74530000Y-83938095D01*
X74482380Y-83842857D01*
X75482380Y-82557142D02*
X75482380Y-83128571D01*
X75482380Y-82842857D02*
X74482380Y-82842857D01*
X74625238Y-82938095D01*
X74720476Y-83033333D01*
X74768095Y-83128571D01*
%TO.C,D1*%
X101261904Y-56882380D02*
X101261904Y-55882380D01*
X101500000Y-55882380D01*
X101642857Y-55930000D01*
X101738095Y-56025238D01*
X101785714Y-56120476D01*
X101833333Y-56310952D01*
X101833333Y-56453809D01*
X101785714Y-56644285D01*
X101738095Y-56739523D01*
X101642857Y-56834761D01*
X101500000Y-56882380D01*
X101261904Y-56882380D01*
X102785714Y-56882380D02*
X102214285Y-56882380D01*
X102500000Y-56882380D02*
X102500000Y-55882380D01*
X102404761Y-56025238D01*
X102309523Y-56120476D01*
X102214285Y-56168095D01*
%TO.C,C202*%
X100880952Y-70927142D02*
X100833333Y-70974761D01*
X100690476Y-71022380D01*
X100595238Y-71022380D01*
X100452380Y-70974761D01*
X100357142Y-70879523D01*
X100309523Y-70784285D01*
X100261904Y-70593809D01*
X100261904Y-70450952D01*
X100309523Y-70260476D01*
X100357142Y-70165238D01*
X100452380Y-70070000D01*
X100595238Y-70022380D01*
X100690476Y-70022380D01*
X100833333Y-70070000D01*
X100880952Y-70117619D01*
X101261904Y-70117619D02*
X101309523Y-70070000D01*
X101404761Y-70022380D01*
X101642857Y-70022380D01*
X101738095Y-70070000D01*
X101785714Y-70117619D01*
X101833333Y-70212857D01*
X101833333Y-70308095D01*
X101785714Y-70450952D01*
X101214285Y-71022380D01*
X101833333Y-71022380D01*
X102452380Y-70022380D02*
X102547619Y-70022380D01*
X102642857Y-70070000D01*
X102690476Y-70117619D01*
X102738095Y-70212857D01*
X102785714Y-70403333D01*
X102785714Y-70641428D01*
X102738095Y-70831904D01*
X102690476Y-70927142D01*
X102642857Y-70974761D01*
X102547619Y-71022380D01*
X102452380Y-71022380D01*
X102357142Y-70974761D01*
X102309523Y-70927142D01*
X102261904Y-70831904D01*
X102214285Y-70641428D01*
X102214285Y-70403333D01*
X102261904Y-70212857D01*
X102309523Y-70117619D01*
X102357142Y-70070000D01*
X102452380Y-70022380D01*
X103166666Y-70117619D02*
X103214285Y-70070000D01*
X103309523Y-70022380D01*
X103547619Y-70022380D01*
X103642857Y-70070000D01*
X103690476Y-70117619D01*
X103738095Y-70212857D01*
X103738095Y-70308095D01*
X103690476Y-70450952D01*
X103119047Y-71022380D01*
X103738095Y-71022380D01*
%TO.C,C201*%
X100880952Y-67927142D02*
X100833333Y-67974761D01*
X100690476Y-68022380D01*
X100595238Y-68022380D01*
X100452380Y-67974761D01*
X100357142Y-67879523D01*
X100309523Y-67784285D01*
X100261904Y-67593809D01*
X100261904Y-67450952D01*
X100309523Y-67260476D01*
X100357142Y-67165238D01*
X100452380Y-67070000D01*
X100595238Y-67022380D01*
X100690476Y-67022380D01*
X100833333Y-67070000D01*
X100880952Y-67117619D01*
X101261904Y-67117619D02*
X101309523Y-67070000D01*
X101404761Y-67022380D01*
X101642857Y-67022380D01*
X101738095Y-67070000D01*
X101785714Y-67117619D01*
X101833333Y-67212857D01*
X101833333Y-67308095D01*
X101785714Y-67450952D01*
X101214285Y-68022380D01*
X101833333Y-68022380D01*
X102452380Y-67022380D02*
X102547619Y-67022380D01*
X102642857Y-67070000D01*
X102690476Y-67117619D01*
X102738095Y-67212857D01*
X102785714Y-67403333D01*
X102785714Y-67641428D01*
X102738095Y-67831904D01*
X102690476Y-67927142D01*
X102642857Y-67974761D01*
X102547619Y-68022380D01*
X102452380Y-68022380D01*
X102357142Y-67974761D01*
X102309523Y-67927142D01*
X102261904Y-67831904D01*
X102214285Y-67641428D01*
X102214285Y-67403333D01*
X102261904Y-67212857D01*
X102309523Y-67117619D01*
X102357142Y-67070000D01*
X102452380Y-67022380D01*
X103738095Y-68022380D02*
X103166666Y-68022380D01*
X103452380Y-68022380D02*
X103452380Y-67022380D01*
X103357142Y-67165238D01*
X103261904Y-67260476D01*
X103166666Y-67308095D01*
%TO.C,C103*%
X70857142Y-87119047D02*
X70904761Y-87166666D01*
X70952380Y-87309523D01*
X70952380Y-87404761D01*
X70904761Y-87547619D01*
X70809523Y-87642857D01*
X70714285Y-87690476D01*
X70523809Y-87738095D01*
X70380952Y-87738095D01*
X70190476Y-87690476D01*
X70095238Y-87642857D01*
X70000000Y-87547619D01*
X69952380Y-87404761D01*
X69952380Y-87309523D01*
X70000000Y-87166666D01*
X70047619Y-87119047D01*
X70952380Y-86166666D02*
X70952380Y-86738095D01*
X70952380Y-86452380D02*
X69952380Y-86452380D01*
X70095238Y-86547619D01*
X70190476Y-86642857D01*
X70238095Y-86738095D01*
X69952380Y-85547619D02*
X69952380Y-85452380D01*
X70000000Y-85357142D01*
X70047619Y-85309523D01*
X70142857Y-85261904D01*
X70333333Y-85214285D01*
X70571428Y-85214285D01*
X70761904Y-85261904D01*
X70857142Y-85309523D01*
X70904761Y-85357142D01*
X70952380Y-85452380D01*
X70952380Y-85547619D01*
X70904761Y-85642857D01*
X70857142Y-85690476D01*
X70761904Y-85738095D01*
X70571428Y-85785714D01*
X70333333Y-85785714D01*
X70142857Y-85738095D01*
X70047619Y-85690476D01*
X70000000Y-85642857D01*
X69952380Y-85547619D01*
X69952380Y-84880952D02*
X69952380Y-84261904D01*
X70333333Y-84595238D01*
X70333333Y-84452380D01*
X70380952Y-84357142D01*
X70428571Y-84309523D01*
X70523809Y-84261904D01*
X70761904Y-84261904D01*
X70857142Y-84309523D01*
X70904761Y-84357142D01*
X70952380Y-84452380D01*
X70952380Y-84738095D01*
X70904761Y-84833333D01*
X70857142Y-84880952D01*
%TO.C,C102*%
X70287142Y-76119047D02*
X70334761Y-76166666D01*
X70382380Y-76309523D01*
X70382380Y-76404761D01*
X70334761Y-76547619D01*
X70239523Y-76642857D01*
X70144285Y-76690476D01*
X69953809Y-76738095D01*
X69810952Y-76738095D01*
X69620476Y-76690476D01*
X69525238Y-76642857D01*
X69430000Y-76547619D01*
X69382380Y-76404761D01*
X69382380Y-76309523D01*
X69430000Y-76166666D01*
X69477619Y-76119047D01*
X70382380Y-75166666D02*
X70382380Y-75738095D01*
X70382380Y-75452380D02*
X69382380Y-75452380D01*
X69525238Y-75547619D01*
X69620476Y-75642857D01*
X69668095Y-75738095D01*
X69382380Y-74547619D02*
X69382380Y-74452380D01*
X69430000Y-74357142D01*
X69477619Y-74309523D01*
X69572857Y-74261904D01*
X69763333Y-74214285D01*
X70001428Y-74214285D01*
X70191904Y-74261904D01*
X70287142Y-74309523D01*
X70334761Y-74357142D01*
X70382380Y-74452380D01*
X70382380Y-74547619D01*
X70334761Y-74642857D01*
X70287142Y-74690476D01*
X70191904Y-74738095D01*
X70001428Y-74785714D01*
X69763333Y-74785714D01*
X69572857Y-74738095D01*
X69477619Y-74690476D01*
X69430000Y-74642857D01*
X69382380Y-74547619D01*
X69477619Y-73833333D02*
X69430000Y-73785714D01*
X69382380Y-73690476D01*
X69382380Y-73452380D01*
X69430000Y-73357142D01*
X69477619Y-73309523D01*
X69572857Y-73261904D01*
X69668095Y-73261904D01*
X69810952Y-73309523D01*
X70382380Y-73880952D01*
X70382380Y-73261904D01*
%TO.C,C101*%
X78357142Y-85219047D02*
X78404761Y-85266666D01*
X78452380Y-85409523D01*
X78452380Y-85504761D01*
X78404761Y-85647619D01*
X78309523Y-85742857D01*
X78214285Y-85790476D01*
X78023809Y-85838095D01*
X77880952Y-85838095D01*
X77690476Y-85790476D01*
X77595238Y-85742857D01*
X77500000Y-85647619D01*
X77452380Y-85504761D01*
X77452380Y-85409523D01*
X77500000Y-85266666D01*
X77547619Y-85219047D01*
X78452380Y-84266666D02*
X78452380Y-84838095D01*
X78452380Y-84552380D02*
X77452380Y-84552380D01*
X77595238Y-84647619D01*
X77690476Y-84742857D01*
X77738095Y-84838095D01*
X77452380Y-83647619D02*
X77452380Y-83552380D01*
X77500000Y-83457142D01*
X77547619Y-83409523D01*
X77642857Y-83361904D01*
X77833333Y-83314285D01*
X78071428Y-83314285D01*
X78261904Y-83361904D01*
X78357142Y-83409523D01*
X78404761Y-83457142D01*
X78452380Y-83552380D01*
X78452380Y-83647619D01*
X78404761Y-83742857D01*
X78357142Y-83790476D01*
X78261904Y-83838095D01*
X78071428Y-83885714D01*
X77833333Y-83885714D01*
X77642857Y-83838095D01*
X77547619Y-83790476D01*
X77500000Y-83742857D01*
X77452380Y-83647619D01*
X78452380Y-82361904D02*
X78452380Y-82933333D01*
X78452380Y-82647619D02*
X77452380Y-82647619D01*
X77595238Y-82742857D01*
X77690476Y-82838095D01*
X77738095Y-82933333D01*
%TO.C,BUCK3.3*%
D13*
X64643571Y-79909285D02*
X64825000Y-79969761D01*
X64885476Y-80030238D01*
X64945952Y-80151190D01*
X64945952Y-80332619D01*
X64885476Y-80453571D01*
X64825000Y-80514047D01*
X64704047Y-80574523D01*
X64220238Y-80574523D01*
X64220238Y-79304523D01*
X64643571Y-79304523D01*
X64764523Y-79365000D01*
X64825000Y-79425476D01*
X64885476Y-79546428D01*
X64885476Y-79667380D01*
X64825000Y-79788333D01*
X64764523Y-79848809D01*
X64643571Y-79909285D01*
X64220238Y-79909285D01*
X65490238Y-79304523D02*
X65490238Y-80332619D01*
X65550714Y-80453571D01*
X65611190Y-80514047D01*
X65732142Y-80574523D01*
X65974047Y-80574523D01*
X66095000Y-80514047D01*
X66155476Y-80453571D01*
X66215952Y-80332619D01*
X66215952Y-79304523D01*
X67546428Y-80453571D02*
X67485952Y-80514047D01*
X67304523Y-80574523D01*
X67183571Y-80574523D01*
X67002142Y-80514047D01*
X66881190Y-80393095D01*
X66820714Y-80272142D01*
X66760238Y-80030238D01*
X66760238Y-79848809D01*
X66820714Y-79606904D01*
X66881190Y-79485952D01*
X67002142Y-79365000D01*
X67183571Y-79304523D01*
X67304523Y-79304523D01*
X67485952Y-79365000D01*
X67546428Y-79425476D01*
X68090714Y-80574523D02*
X68090714Y-79304523D01*
X68816428Y-80574523D02*
X68272142Y-79848809D01*
X68816428Y-79304523D02*
X68090714Y-80030238D01*
X69239761Y-79304523D02*
X70025952Y-79304523D01*
X69602619Y-79788333D01*
X69784047Y-79788333D01*
X69905000Y-79848809D01*
X69965476Y-79909285D01*
X70025952Y-80030238D01*
X70025952Y-80332619D01*
X69965476Y-80453571D01*
X69905000Y-80514047D01*
X69784047Y-80574523D01*
X69421190Y-80574523D01*
X69300238Y-80514047D01*
X69239761Y-80453571D01*
X70570238Y-80453571D02*
X70630714Y-80514047D01*
X70570238Y-80574523D01*
X70509761Y-80514047D01*
X70570238Y-80453571D01*
X70570238Y-80574523D01*
X71054047Y-79304523D02*
X71840238Y-79304523D01*
X71416904Y-79788333D01*
X71598333Y-79788333D01*
X71719285Y-79848809D01*
X71779761Y-79909285D01*
X71840238Y-80030238D01*
X71840238Y-80332619D01*
X71779761Y-80453571D01*
X71719285Y-80514047D01*
X71598333Y-80574523D01*
X71235476Y-80574523D01*
X71114523Y-80514047D01*
X71054047Y-80453571D01*
%TO.C,BT1*%
D10*
X90548571Y-62785714D02*
X90596190Y-62642857D01*
X90643809Y-62595238D01*
X90739047Y-62547619D01*
X90881904Y-62547619D01*
X90977142Y-62595238D01*
X91024761Y-62642857D01*
X91072380Y-62738095D01*
X91072380Y-63119047D01*
X90072380Y-63119047D01*
X90072380Y-62785714D01*
X90120000Y-62690476D01*
X90167619Y-62642857D01*
X90262857Y-62595238D01*
X90358095Y-62595238D01*
X90453333Y-62642857D01*
X90500952Y-62690476D01*
X90548571Y-62785714D01*
X90548571Y-63119047D01*
X90072380Y-62261904D02*
X90072380Y-61690476D01*
X91072380Y-61976190D02*
X90072380Y-61976190D01*
X91072380Y-60833333D02*
X91072380Y-61404761D01*
X91072380Y-61119047D02*
X90072380Y-61119047D01*
X90215238Y-61214285D01*
X90310476Y-61309523D01*
X90358095Y-61404761D01*
%TO.C,BMSLI-ION1*%
X98428571Y-67000000D02*
X98476190Y-66857142D01*
X98523809Y-66809523D01*
X98619047Y-66761904D01*
X98761904Y-66761904D01*
X98857142Y-66809523D01*
X98904761Y-66857142D01*
X98952380Y-66952380D01*
X98952380Y-67333333D01*
X97952380Y-67333333D01*
X97952380Y-67000000D01*
X98000000Y-66904761D01*
X98047619Y-66857142D01*
X98142857Y-66809523D01*
X98238095Y-66809523D01*
X98333333Y-66857142D01*
X98380952Y-66904761D01*
X98428571Y-67000000D01*
X98428571Y-67333333D01*
X98952380Y-66333333D02*
X97952380Y-66333333D01*
X98666666Y-66000000D01*
X97952380Y-65666666D01*
X98952380Y-65666666D01*
X98904761Y-65238095D02*
X98952380Y-65095238D01*
X98952380Y-64857142D01*
X98904761Y-64761904D01*
X98857142Y-64714285D01*
X98761904Y-64666666D01*
X98666666Y-64666666D01*
X98571428Y-64714285D01*
X98523809Y-64761904D01*
X98476190Y-64857142D01*
X98428571Y-65047619D01*
X98380952Y-65142857D01*
X98333333Y-65190476D01*
X98238095Y-65238095D01*
X98142857Y-65238095D01*
X98047619Y-65190476D01*
X98000000Y-65142857D01*
X97952380Y-65047619D01*
X97952380Y-64809523D01*
X98000000Y-64666666D01*
X98952380Y-63761904D02*
X98952380Y-64238095D01*
X97952380Y-64238095D01*
X98952380Y-63428571D02*
X97952380Y-63428571D01*
X98571428Y-62952380D02*
X98571428Y-62190476D01*
X98952380Y-61714285D02*
X97952380Y-61714285D01*
X97952380Y-61047619D02*
X97952380Y-60857142D01*
X98000000Y-60761904D01*
X98095238Y-60666666D01*
X98285714Y-60619047D01*
X98619047Y-60619047D01*
X98809523Y-60666666D01*
X98904761Y-60761904D01*
X98952380Y-60857142D01*
X98952380Y-61047619D01*
X98904761Y-61142857D01*
X98809523Y-61238095D01*
X98619047Y-61285714D01*
X98285714Y-61285714D01*
X98095238Y-61238095D01*
X98000000Y-61142857D01*
X97952380Y-61047619D01*
X98952380Y-60190476D02*
X97952380Y-60190476D01*
X98952380Y-59619047D01*
X97952380Y-59619047D01*
X98952380Y-58619047D02*
X98952380Y-59190476D01*
X98952380Y-58904761D02*
X97952380Y-58904761D01*
X98095238Y-59000000D01*
X98190476Y-59095238D01*
X98238095Y-59190476D01*
%TD*%
M02*
